<?xml version="1.0" encoding="utf-8"?>
<!-- Generator: Adobe Illustrator 19.2.1, SVG Export Plug-In . SVG Version: 6.00 Build 0)  -->
<svg version="1.1" id="layer" xmlns="http://www.w3.org/2000/svg" xmlns:xlink="http://www.w3.org/1999/xlink" x="0px" y="0px"
	 viewBox="0 0 652 652" style="enable-background:new 0 0 652 652;" xml:space="preserve">
<style type="text/css">
	.st0{fill:#303335;}
</style>
<g>
	<path class="st0" d="M219.9,286.3h6.4v8.5c2.2-3.2,4.5-5.5,6.8-6.9c3.2-1.9,6.6-2.8,10.1-2.8c2.4,0,4.7,0.5,6.8,1.4
		c2.1,1,3.9,2.2,5.3,3.8c1.3,1.6,2.5,3.8,3.5,6.7c2.1-3.9,4.8-6.8,7.9-8.9c3.2-2,6.5-3,10.2-3c3.4,0,6.4,0.9,9,2.6s4.6,4.1,5.8,7.2
		c1.2,3.1,1.9,7.7,1.9,13.9v27h-6.4v-27c0-5.3-0.4-8.9-1.1-10.9c-0.8-2-2-3.6-3.9-4.8c-1.8-1.2-4-1.8-6.5-1.8
		c-3.1,0-5.9,0.9-8.4,2.7c-2.6,1.8-4.4,4.2-5.6,7.2c-1.2,3-1.8,8.1-1.8,15.2v19.3h-6.4v-25.3c0-6-0.4-10-1.1-12.1
		c-0.8-2.1-2-3.9-3.9-5.2c-1.8-1.3-4-1.9-6.5-1.9c-3,0-5.7,0.9-8.3,2.6c-2.6,1.8-4.5,4.2-5.6,7.1c-1.2,3-1.8,7.6-1.8,13.7v20.9h-6.4
		L219.9,286.3L219.9,286.3z M356.5,286.3v49.5H350v-8.5c-2.6,3.2-5.6,5.7-9,7.3c-3.3,1.6-6.9,2.4-10.8,2.4c-7,0-12.9-2.5-17.9-7.6
		c-4.9-5-7.4-11.2-7.4-18.5c0-7.1,2.5-13.2,7.5-18.2c5-5,11-7.6,18-7.6c4,0,7.7,0.9,11,2.6c3.3,1.7,6.2,4.3,8.6,7.7v-9.2H356.5z
		 M331,291.3c-3.5,0-6.8,0.9-9.8,2.6c-3,1.7-5.3,4.2-7.1,7.3c-1.8,3.2-2.6,6.4-2.6,9.9s0.9,6.8,2.7,10c1.8,3.2,4.1,5.6,7.1,7.4
		c3,1.8,6.2,2.6,9.7,2.6c3.4,0,6.7-0.9,9.8-2.6c3.1-1.8,5.5-4.1,7.1-7.1c1.7-3,2.5-6.3,2.5-10.1c0-5.7-1.9-10.5-5.6-14.3
		C341.1,293.3,336.5,291.3,331,291.3 M420,267.3v68.5h-6.4v-8.5c-2.6,3.2-5.6,5.7-8.9,7.3s-6.9,2.4-10.8,2.4c-7,0-12.9-2.5-17.8-7.6
		c-4.9-5-7.4-11.2-7.4-18.5c0-7.1,2.5-13.2,7.5-18.2c5-5,10.9-7.6,18-7.6c4,0,7.7,0.9,10.9,2.6c3.3,1.7,6.1,4.3,8.6,7.8v-28.3H420
		L420,267.3z M394.6,291.3c-3.5,0-6.8,0.9-9.7,2.6c-3,1.7-5.3,4.2-7.1,7.3c-1.8,3.2-2.6,6.4-2.6,9.9c0,3.5,0.9,6.8,2.7,10
		c1.8,3.2,4.1,5.6,7.1,7.4s6.2,2.6,9.6,2.6s6.7-0.9,9.8-2.6c3.1-1.8,5.5-4.1,7.1-7.1c1.7-3,2.5-6.3,2.5-10.1
		c0-5.7-1.9-10.5-5.6-14.3C404.6,293.3,400,291.3,394.6,291.3 M482.3,296.5l-5,3.1c-4.3-5.7-10.3-8.6-17.9-8.6c-6,0-11.1,1.9-15,5.8
		c-4,3.9-6,8.6-6,14.2c0,3.6,0.9,7,2.7,10.2c1.8,3.2,4.3,5.6,7.6,7.4c3.2,1.8,6.8,2.6,10.7,2.6c7.3,0,13.2-2.9,17.8-8.6l5,3.3
		c-2.4,3.5-5.5,6.3-9.5,8.3c-4,1.9-8.5,2.9-13.6,2.9c-7.8,0-14.3-2.5-19.5-7.5c-5.2-4.9-7.7-11-7.7-18.1c0-4.8,1.2-9.2,3.6-13.3
		c2.4-4.1,5.7-7.3,9.9-9.6c4.2-2.3,9-3.4,14.2-3.4c3.3,0,6.4,0.5,9.5,1.5c3.1,1,5.6,2.3,7.8,3.8C479.1,292,480.8,294.1,482.3,296.5
		 M543.8,286.3v49.5h-6.4v-8.5c-2.7,3.2-5.6,5.7-9,7.3s-6.9,2.4-10.8,2.4c-7,0-12.9-2.5-17.9-7.6c-4.9-5-7.4-11.2-7.4-18.5
		c0-7.1,2.5-13.2,7.5-18.2c5-5,11-7.6,18-7.6c4,0,7.7,0.9,11,2.6s6.2,4.3,8.6,7.7v-9.2H543.8L543.8,286.3z M518.3,291.3
		c-3.5,0-6.8,0.9-9.7,2.6c-3,1.7-5.4,4.2-7.1,7.3c-1.8,3.2-2.6,6.4-2.6,9.9s0.9,6.8,2.7,10c1.8,3.2,4.1,5.6,7.1,7.4
		c3,1.8,6.2,2.6,9.6,2.6c3.4,0,6.7-0.9,9.8-2.6s5.5-4.1,7.1-7.1c1.7-3,2.5-6.3,2.5-10.1c0-5.7-1.9-10.5-5.6-14.3
		C528.4,293.3,523.8,291.3,518.3,291.3 M558.1,286.3h6.4v9.1c2.5-3.4,5.4-6,8.6-7.7c3.3-1.7,6.9-2.6,10.9-2.6c7,0,13,2.5,18,7.6
		c5,5,7.5,11.1,7.5,18.2c0,7.2-2.5,13.4-7.4,18.5c-4.9,5-10.9,7.6-17.9,7.6c-3.9,0-7.6-0.8-10.8-2.5c-3.3-1.6-6.3-4.1-8.9-7.3v26.6
		h-6.4L558.1,286.3L558.1,286.3z M583.5,291.3c-5.5,0-10.1,1.9-13.8,5.7c-3.8,3.8-5.6,8.6-5.6,14.3c0,3.8,0.8,7.1,2.5,10.1
		c1.7,3,4.1,5.4,7.2,7.1c3.1,1.8,6.4,2.6,9.9,2.6c3.4,0,6.6-0.9,9.5-2.6c3-1.8,5.4-4.2,7.2-7.4c1.8-3.2,2.7-6.5,2.7-10
		s-0.9-6.8-2.6-9.9c-1.8-3.1-4.1-5.6-7.1-7.3C590.3,292.2,587,291.3,583.5,291.3 M220.8,372.1c2.1,2.6,5.2,4.5,9.7,4.5
		c3.5,0,6.7-1.1,6.7-3.6c0-6.1-17.8-0.9-17.8-9.7c0-4.9,5-6.5,9.5-6.5c7.2,0,9.8,3.1,10.9,4.6l-2.3,2c-1.8-2.3-4.5-3.9-8.7-3.9
		c-3.9,0-6.2,1.2-6.2,3.5c0,5.5,17.8,0.5,17.8,9.7c0,4.9-4.8,6.7-10.4,6.7c-4.7,0-8.7-1.3-11.9-5L220.8,372.1L220.8,372.1z
		 M243.6,367.7c0-6.1,4.8-11,12.4-11c7.5,0,12.3,4.9,12.3,11c0,7.6-5,11.7-12.3,11.7C248.7,379.5,243.6,375.3,243.6,367.7
		 M265,368.2c0-3.9-2.5-8.6-9-8.6c-6.5,0-9.1,4.7-9.1,8.6c0,5.1,3.4,8.5,9.1,8.5C261.6,376.6,265,373.2,265,368.2 M275.9,360.7h-5.4
		v-2.8h5.4v-1.7c0-3.5,1.1-7.9,7.6-7.9c3.4,0,4.7,0.4,5.6,0.6v3c-1.4-0.4-2.9-0.7-4.6-0.7c-4.6,0-5.3,2.1-5.3,5.3v1.4h8.8v2.8h-8.8
		v18.1h-3.3V360.7z M307.9,360.2h-8.5v12.9c0,2.3,1,3.5,4.4,3.5c1.6,0,2.9-0.3,4.7-0.6v2.8c-2.4,0.4-4.1,0.6-5.4,0.6c-7,0-7-4.2-7-6
		v-13.3h-4.6v-2.8h4.6v-7.1h3.3v7.1h8.5L307.9,360.2L307.9,360.2z M310.7,357.4h3.4l7.1,17.4l6.7-17.4h3.1l6.7,17.5l7-17.5h3.5
		l-9.1,21.4H336l-6.5-17.4l-6.5,17.4h-3.2L310.7,357.4z M372.8,375.5c0,1.3,0.2,2.2,0.4,3.3h-3.3c-0.2-0.6-0.4-1.7-0.4-2.6
		c-3.1,2-6.6,3.2-10.7,3.2c-3.5,0-8.7-1-8.7-6.5c0-7.4,11.1-7.7,19.5-8.7v-0.8c0-2.9-3.5-4-6.9-4c-5.7,0-7.7,2.4-8.8,3.6l-2.5-1.7
		c1.2-1.5,3.5-4.6,11-4.6c4.9,0,10.5,1.4,10.5,6.9v11.8H372.8z M369.5,367c-9.8,0.9-16.3,1.8-16.3,6c0,3.4,3.8,3.8,5.4,3.8
		c4.6,0,8.8-2.2,10.9-3.3L369.5,367L369.5,367z M379.2,357.4h3.3v4.5c1.9-2.1,4.6-5.1,8.9-5.1c0.8,0,1.3,0.1,2,0.2v3.3
		c-0.4-0.1-1.2-0.3-2.7-0.3c-4.7,0-8.1,5.5-8.2,6.1v12.8h-3.3V357.4z M419.3,374.4c-2.3,2.3-4.3,5.1-11.6,5.1
		c-7.2,0-12.1-4.9-12.1-11.5c0-6.8,5.1-11.3,11.7-11.3c6.8,0,12.8,3.5,12.7,12.1h-21c0.3,4,3.5,7.9,9.1,7.9c5.5,0,7.3-2.5,8.7-4.2
		L419.3,374.4z M416.3,366c-0.6-3.5-3.7-6.4-8.8-6.4c-4.9,0-7.6,2.5-8.5,6.4H416.3L416.3,366z"/>
</g>
<g>
	<path class="st0" d="M219.9,286.3h6.4v8.5c2.2-3.2,4.5-5.5,6.8-6.9c3.2-1.9,6.6-2.8,10.1-2.8c2.4,0,4.7,0.5,6.8,1.4
		c2.1,1,3.9,2.2,5.3,3.8c1.3,1.6,2.5,3.8,3.5,6.7c2.1-3.9,4.8-6.8,7.9-8.9c3.2-2,6.5-3,10.2-3c3.4,0,6.4,0.9,9,2.6s4.6,4.1,5.8,7.2
		c1.2,3.1,1.9,7.7,1.9,13.9v27h-6.4v-27c0-5.3-0.4-8.9-1.1-10.9c-0.8-2-2-3.6-3.9-4.8c-1.8-1.2-4-1.8-6.5-1.8
		c-3.1,0-5.9,0.9-8.4,2.7c-2.6,1.8-4.4,4.2-5.6,7.2c-1.2,3-1.8,8.1-1.8,15.2v19.3h-6.4v-25.3c0-6-0.4-10-1.1-12.1
		c-0.8-2.1-2-3.9-3.9-5.2c-1.8-1.3-4-1.9-6.5-1.9c-3,0-5.7,0.9-8.3,2.6c-2.6,1.8-4.5,4.2-5.6,7.1c-1.2,3-1.8,7.6-1.8,13.7v20.9h-6.4
		L219.9,286.3L219.9,286.3z M356.5,286.3v49.5H350v-8.5c-2.6,3.2-5.6,5.7-9,7.3c-3.3,1.6-6.9,2.4-10.8,2.4c-7,0-12.9-2.5-17.9-7.6
		c-4.9-5-7.4-11.2-7.4-18.5c0-7.1,2.5-13.2,7.5-18.2c5-5,11-7.6,18-7.6c4,0,7.7,0.9,11,2.6c3.3,1.7,6.2,4.3,8.6,7.7v-9.2H356.5z
		 M331,291.3c-3.5,0-6.8,0.9-9.8,2.6c-3,1.7-5.3,4.2-7.1,7.3c-1.8,3.2-2.6,6.4-2.6,9.9s0.9,6.8,2.7,10c1.8,3.2,4.1,5.6,7.1,7.4
		c3,1.8,6.2,2.6,9.7,2.6c3.4,0,6.7-0.9,9.8-2.6c3.1-1.8,5.5-4.1,7.1-7.1c1.7-3,2.5-6.3,2.5-10.1c0-5.7-1.9-10.5-5.6-14.3
		C341.1,293.3,336.5,291.3,331,291.3 M420,267.3v68.5h-6.4v-8.5c-2.6,3.2-5.6,5.7-8.9,7.3s-6.9,2.4-10.8,2.4c-7,0-12.9-2.5-17.8-7.6
		c-4.9-5-7.4-11.2-7.4-18.5c0-7.1,2.5-13.2,7.5-18.2c5-5,10.9-7.6,18-7.6c4,0,7.7,0.9,10.9,2.6c3.3,1.7,6.1,4.3,8.6,7.8v-28.3H420
		L420,267.3z M394.6,291.3c-3.5,0-6.8,0.9-9.7,2.6c-3,1.7-5.3,4.2-7.1,7.3c-1.8,3.2-2.6,6.4-2.6,9.9c0,3.5,0.9,6.8,2.7,10
		c1.8,3.2,4.1,5.6,7.1,7.4s6.2,2.6,9.6,2.6s6.7-0.9,9.8-2.6c3.1-1.8,5.5-4.1,7.1-7.1c1.7-3,2.5-6.3,2.5-10.1
		c0-5.7-1.9-10.5-5.6-14.3C404.6,293.3,400,291.3,394.6,291.3 M482.3,296.5l-5,3.1c-4.3-5.7-10.3-8.6-17.9-8.6c-6,0-11.1,1.9-15,5.8
		c-4,3.9-6,8.6-6,14.2c0,3.6,0.9,7,2.7,10.2c1.8,3.2,4.3,5.6,7.6,7.4c3.2,1.8,6.8,2.6,10.7,2.6c7.3,0,13.2-2.9,17.8-8.6l5,3.3
		c-2.4,3.5-5.5,6.3-9.5,8.3c-4,1.9-8.5,2.9-13.6,2.9c-7.8,0-14.3-2.5-19.5-7.5c-5.2-4.9-7.7-11-7.7-18.1c0-4.8,1.2-9.2,3.6-13.3
		c2.4-4.1,5.7-7.3,9.9-9.6c4.2-2.3,9-3.4,14.2-3.4c3.3,0,6.4,0.5,9.5,1.5c3.1,1,5.6,2.3,7.8,3.8C479.1,292,480.8,294.1,482.3,296.5
		 M543.8,286.3v49.5h-6.4v-8.5c-2.7,3.2-5.6,5.7-9,7.3s-6.9,2.4-10.8,2.4c-7,0-12.9-2.5-17.9-7.6c-4.9-5-7.4-11.2-7.4-18.5
		c0-7.1,2.5-13.2,7.5-18.2c5-5,11-7.6,18-7.6c4,0,7.7,0.9,11,2.6s6.2,4.3,8.6,7.7v-9.2H543.8L543.8,286.3z M518.3,291.3
		c-3.5,0-6.8,0.9-9.7,2.6c-3,1.7-5.4,4.2-7.1,7.3c-1.8,3.2-2.6,6.4-2.6,9.9s0.9,6.8,2.7,10c1.8,3.2,4.1,5.6,7.1,7.4
		c3,1.8,6.2,2.6,9.6,2.6c3.4,0,6.7-0.9,9.8-2.6s5.5-4.1,7.1-7.1c1.7-3,2.5-6.3,2.5-10.1c0-5.7-1.9-10.5-5.6-14.3
		C528.4,293.3,523.8,291.3,518.3,291.3 M558.1,286.3h6.4v9.1c2.5-3.4,5.4-6,8.6-7.7c3.3-1.7,6.9-2.6,10.9-2.6c7,0,13,2.5,18,7.6
		c5,5,7.5,11.1,7.5,18.2c0,7.2-2.5,13.4-7.4,18.5c-4.9,5-10.9,7.6-17.9,7.6c-3.9,0-7.6-0.8-10.8-2.5c-3.3-1.6-6.3-4.1-8.9-7.3v26.6
		h-6.4L558.1,286.3L558.1,286.3z M583.5,291.3c-5.5,0-10.1,1.9-13.8,5.7c-3.8,3.8-5.6,8.6-5.6,14.3c0,3.8,0.8,7.1,2.5,10.1
		c1.7,3,4.1,5.4,7.2,7.1c3.1,1.8,6.4,2.6,9.9,2.6c3.4,0,6.6-0.9,9.5-2.6c3-1.8,5.4-4.2,7.2-7.4c1.8-3.2,2.7-6.5,2.7-10
		s-0.9-6.8-2.6-9.9c-1.8-3.1-4.1-5.6-7.1-7.3C590.3,292.2,587,291.3,583.5,291.3 M220.8,372.1c2.1,2.6,5.2,4.5,9.7,4.5
		c3.5,0,6.7-1.1,6.7-3.6c0-6.1-17.8-0.9-17.8-9.7c0-4.9,5-6.5,9.5-6.5c7.2,0,9.8,3.1,10.9,4.6l-2.3,2c-1.8-2.3-4.5-3.9-8.7-3.9
		c-3.9,0-6.2,1.2-6.2,3.5c0,5.5,17.8,0.5,17.8,9.7c0,4.9-4.8,6.7-10.4,6.7c-4.7,0-8.7-1.3-11.9-5L220.8,372.1L220.8,372.1z
		 M243.6,367.7c0-6.1,4.8-11,12.4-11c7.5,0,12.3,4.9,12.3,11c0,7.6-5,11.7-12.3,11.7C248.7,379.5,243.6,375.3,243.6,367.7
		 M265,368.2c0-3.9-2.5-8.6-9-8.6c-6.5,0-9.1,4.7-9.1,8.6c0,5.1,3.4,8.5,9.1,8.5C261.6,376.6,265,373.2,265,368.2 M275.9,360.7h-5.4
		v-2.8h5.4v-1.7c0-3.5,1.1-7.9,7.6-7.9c3.4,0,4.7,0.4,5.6,0.6v3c-1.4-0.4-2.9-0.7-4.6-0.7c-4.6,0-5.3,2.1-5.3,5.3v1.4h8.8v2.8h-8.8
		v18.1h-3.3V360.7z M307.9,360.2h-8.5v12.9c0,2.3,1,3.5,4.4,3.5c1.6,0,2.9-0.3,4.7-0.6v2.8c-2.4,0.4-4.1,0.6-5.4,0.6c-7,0-7-4.2-7-6
		v-13.3h-4.6v-2.8h4.6v-7.1h3.3v7.1h8.5L307.9,360.2L307.9,360.2z M310.7,357.4h3.4l7.1,17.4l6.7-17.4h3.1l6.7,17.5l7-17.5h3.5
		l-9.1,21.4H336l-6.5-17.4l-6.5,17.4h-3.2L310.7,357.4z M372.8,375.5c0,1.3,0.2,2.2,0.4,3.3h-3.3c-0.2-0.6-0.4-1.7-0.4-2.6
		c-3.1,2-6.6,3.2-10.7,3.2c-3.5,0-8.7-1-8.7-6.5c0-7.4,11.1-7.7,19.5-8.7v-0.8c0-2.9-3.5-4-6.9-4c-5.7,0-7.7,2.4-8.8,3.6l-2.5-1.7
		c1.2-1.5,3.5-4.6,11-4.6c4.9,0,10.5,1.4,10.5,6.9v11.8H372.8z M369.5,367c-9.8,0.9-16.3,1.8-16.3,6c0,3.4,3.8,3.8,5.4,3.8
		c4.6,0,8.8-2.2,10.9-3.3L369.5,367L369.5,367z M379.2,357.4h3.3v4.5c1.9-2.1,4.6-5.1,8.9-5.1c0.8,0,1.3,0.1,2,0.2v3.3
		c-0.4-0.1-1.2-0.3-2.7-0.3c-4.7,0-8.1,5.5-8.2,6.1v12.8h-3.3V357.4z M419.3,374.4c-2.3,2.3-4.3,5.1-11.6,5.1
		c-7.2,0-12.1-4.9-12.1-11.5c0-6.8,5.1-11.3,11.7-11.3c6.8,0,12.8,3.5,12.7,12.1h-21c0.3,4,3.5,7.9,9.1,7.9c5.5,0,7.3-2.5,8.7-4.2
		L419.3,374.4z M416.3,366c-0.6-3.5-3.7-6.4-8.8-6.4c-4.9,0-7.6,2.5-8.5,6.4H416.3L416.3,366z M55.7,344.1v0.1
		c0.8,15.5,12.1,28.5,26.9,31.1c15.8,2.7,31.3-5.6,37-19.6l0.1-0.3c0-0.1,0.1-1,0.1-1c0-2.3-1.9-4.2-4.2-4.2c-1.6,0-3,0.9-3.7,2.2
		l-0.3,0.6c-4.2,10.1-15.8,15.9-27.5,13.9c-11.2-1.9-19.4-11.2-20-22.7c0-2.4-1.9-4.3-4.2-4.3C57.5,339.8,55.7,341.8,55.7,344.1"/>
</g>
<g>
	<path class="st0" d="M22.3,334.2c0,17.4,6.8,34,19,46.6c12.3,12.7,28.6,19.7,45.9,19.7c35.7,0,65.8-30.3,65.8-66.1c0-3.3-2.7-6-6-6
		s-6,2.7-6,6c0,29.8-24.1,54-53.9,54c-14.3,0-27.7-5.6-37.6-15.8c-9.9-10.1-15.3-23.7-15.3-38.1c0-3.4-2.8-6.4-6-6.4
		C25,328.1,22.3,330.9,22.3,334.2 M85.1,274.1c-4.5,0-8.7-1.8-12-4.9c-23.2,4.8-41.7,20.8-49.6,42.8c-0.4,1-0.5,2-0.5,2.9
		c0,1.2,0.3,2.4,1,3.4c1.4,2.1,4.4,2.3,4.4,2.3h153.4c2.8-0.2,5-2.5,5-5.3c0-2.9-2.3-5.3-5.2-5.4h-32.2l-0.3-0.6
		c-9-21.4-28.8-36.9-51.6-40.6C94.4,272.1,89.9,274.1,85.1,274.1"/>
</g>
<g>
	<path class="st0" d="M97.7,256.4c-0.1,6.9-5.7,12.5-12.6,12.4c-6.9-0.1-12.5-5.7-12.4-12.7c0.1-6.9,5.7-12.5,12.6-12.4
		C92.1,243.8,97.7,249.5,97.7,256.4 M150.1,256.5c-0.1,2.9-10.6,5.2-23.6,5S103,259,103,256.1s10.6-5.2,23.6-5
		S150.1,253.6,150.1,256.5 M20.2,256.5c0.1,2.9,10.6,5.2,23.6,5s23.5-2.5,23.5-5.4s-10.6-5.2-23.6-5
		C30.7,251.1,20.2,253.6,20.2,256.5 M161.8,296.6c0-1-0.7-1.2-1.7-1.2h-2.5v4.1h0.8v-1.6h1.3l1.2,1.6h1l-1.2-1.7
		C161.3,297.7,161.8,297.3,161.8,296.6 M158.5,297.2v-1.1h1.6c0.6,0,1,0.1,1,0.6c0,0.5-0.3,0.6-1,0.6L158.5,297.2L158.5,297.2z"/>
</g>
<g>
	<path class="st0" d="M159.6,292.2c-2.8,0-5.2,2.3-5.2,5.2s2.3,5.2,5.2,5.2c2.8,0,5.2-2.3,5.2-5.2S162.4,292.2,159.6,292.2
		 M159.6,301.6c-2.3,0-4.2-1.9-4.2-4.2s1.9-4.2,4.2-4.2c2.3,0,4.2,1.9,4.2,4.2S161.9,301.6,159.6,301.6 M609.8,281.9h-2.4V281h5.8
		v0.9h-2.4v4.5h-1.1V281.9z M615,282.3v4.1h-1V281h1.4l1.7,4l1.7-4h1.3v5.4h-0.9v-4.1l-1.7,4.1h-0.9L615,282.3z"/>
</g>
</svg>
