<?xml version="1.0" encoding="UTF-8" standalone="no"?>
<svg xmlns="http://www.w3.org/2000/svg" xmlns:xlink="http://www.w3.org/1999/xlink" width="297.000mm" height="210.000mm" viewBox="0.000000 0.000000 297.000000 210.000000" stroke-linejoin="round" stroke-linecap="round" fill="none" fill-rule="evenodd"><desc>3DVIA Composer Export</desc><script type="text/ecmascript"><![CDATA[
if(typeof(top) != "undefined")
{
	top.ShowPaper = ShowPaper;
}
function ShowHotSpot(evt,hotspotid)
{
	var svgDocument = evt.target.ownerDocument;
	var strId = "hotspot."+hotspotid;
	var hotspot = svgDocument.getElementById(strId);
	if(hotspot)
		hotspot.setAttribute("opacity",".5");
}
function HideHotSpot(evt,hotspotid)
{
	var svgDocument = evt.target.ownerDocument;
	var strId = "hotspot."+hotspotid;
	var hotspot = svgDocument.getElementById(strId);
	if(hotspot)
		hotspot.setAttribute("opacity","0");

	var toolTip = svgDocument.getElementById('ToolTip');
	if(toolTip)
		toolTip.setAttribute("visibility","hidden");
}
function ShowToolTip(evt,hotspotid,strTooltip)
{
	if(strTooltip=="")
	return;

	// change text
	var svgDocument = evt.target.ownerDocument;
	var tiptext = svgDocument.getElementById('ToolTipText');
	if( !tiptext )
	return;
	tiptext.firstChild.nodeValue = " " + strTooltip + "  " ;

	// show tooltip before, else some refresh issue

	var toolTip = svgDocument.getElementById('ToolTip');
	if(!toolTip)
	return;

	toolTip.setAttribute("visibility","visible");
	toolTip.setAttribute("opacity",".95");

	// move tooltip
	// get viewbox

	var root = svgDocument.documentElement;
	var vbox = (root.getAttribute("viewBox")).split(' ');
	var x0 = parseFloat(vbox[0]);
	var y0 = parseFloat(vbox[1]);
	var vboxW = parseFloat(vbox[2]);
	var vboxH = parseFloat(vbox[3]);

	// get default width of svg

	var strW = root.getAttribute("width");
	var svgW = parseFloat(strW);
	if(strW.indexOf('mm') != -1)
	svgW *= 3.779;

	var strH = root.getAttribute("height");
	var svgH = parseFloat(strH);
	if(strH.indexOf('mm') != -1)
	svgH *= 3.779;  	// 96 dpi  -> 96/25.4 = 3.779

	// update the viewbox / width / height if svg is embedded in html with zoom fit all
	var realx0 = x0;
	var realy0 = y0;
	var realvboxW = vboxW;
	var realvboxH = vboxH;
	var realsvgW = svgW;
	var realsvgH = svgH;

	if ((typeof(top) == "undefined") || (typeof(top.svgctl1) != "undefined")) // embedded in html
	{
		// get window size in pxl

		svgW = window.innerWidth;
		svgH = window.innerHeight;

		// calculate real viewbox

		realsvgW = svgW;
		realsvgH = svgH;
		if((svgW / svgH) > (vboxW / vboxH))
		{
			realvboxW = (vboxH * svgW) / svgH;
			realvboxH = vboxH;
			realx0 = x0 - (realvboxW - vboxW)/2 ;
		}
		else
		{
			realvboxH = (vboxW * svgH) / svgW;
			realvboxW = vboxW;
			realy0 = y0 - (realvboxH - vboxH)/2 ;
		}
	}

	// get user zoom/pan

	var newScale = root.currentScale;
	var translation = root.currentTranslate;

	// transform pxl to user unit

	var xPos = (((evt.clientX+10- translation.x)/newScale) * realvboxW)/realsvgW  + realx0 ;
	var yPos = (((evt.clientY+5- translation.y)/newScale) * realvboxH)/ realsvgH  + realy0 ;
	var scaleForWidth = ( (1 / newScale) * realvboxH) / realsvgH;

	// move tooltip

	toolTip.setAttribute("transform", "translate(" + xPos + "," + yPos + ")" );

	// resize tooltip

	var fontsize = 12;
	tiptext.setAttribute("font-size",fontsize*scaleForWidth);
	tiptext.setAttribute("y", fontsize*scaleForWidth);
	var tipBG = svgDocument.getElementById('ToolTipBG');
	var outline = tiptext.getBBox();
	if(tipBG)
	{
		tipBG.setAttribute("stroke-width", 1*scaleForWidth);
		tipBG.setAttribute("width", Number(outline.width) );
		tipBG.setAttribute("height", Number(outline.height) + fontsize*.5*scaleForWidth );
	}
	var ToolTipShadow = svgDocument.getElementById('ToolTipShadow');
	if(ToolTipShadow)
	{
		ToolTipShadow.setAttribute("width", Number(outline.width) );
		ToolTipShadow.setAttribute("height", Number(outline.height) + fontsize*.5*scaleForWidth );
		ToolTipShadow.setAttribute("x", 3*scaleForWidth);
		ToolTipShadow.setAttribute("y", 3*scaleForWidth);
	}
}
function ShowPaper()
{
  var svgDocument = getDocument();
  var paper = svgDocument.getElementById("paperID");
  if(paper)
  {
    paper.setAttribute("transform","scale(1)");
    paper.setAttribute("opacity","1");
    paper.setAttribute("visibility","visible");
  }
  var svg = svgDocument.getRootElement();
  if(svg)
  {
    svg.setAttribute("width","307.000mm");
    svg.setAttribute("height","220.000mm");
    svg.setAttribute("viewBox","-5.000000 -5.000000 307.000000 220.000000");
  }
}
]]></script><defs/><g><path style="stroke:#000000;stroke-width:0.176;fill:#000000;fill-opacity:0.098;fill-rule:evenodd" d="M30.90,44.37L32.33,45.71L33.11,47.97L33.12,50.83L32.84,51.64L27.86,48.77L26.94,48.78L26.11,49.08L24.14,50.71L22.59,53.03L22.04,55.26L22.02,56.28L22.33,57.09L39.21,66.81L39.25,67.40L35.36,65.37L27.85,60.94L27.49,60.93L27.18,61.21L24.99,62.63L23.35,63.19L21.47,63.20L18.74,61.79L17.82,60.11L18.49,60.20L18.44,55.80L19.19,53.23L20.54,50.43L22.34,47.80L24.53,45.84L26.20,44.74L27.76,44.09L30.07,44.09zM52.49,56.82L53.91,58.16L54.70,60.13L54.69,63.55L54.13,65.75L52.49,69.37L50.55,72.13L48.50,73.96L46.58,75.08L44.93,75.65L43.06,75.65L40.32,74.24L39.41,72.56L40.07,72.65L40.03,68.53L40.77,65.68L42.24,62.71L44.62,59.56L46.85,57.65L49.34,56.54L51.66,56.54zM73.80,76.19L74.32,77.83L74.00,79.53L72.57,82.26L70.75,83.76L69.09,83.97L66.60,82.54L66.24,81.97L67.70,82.39L67.96,80.14L69.39,77.41L71.02,76.00L71.75,75.63L73.26,75.62zM94.00,87.81L94.84,88.91L94.82,90.95L94.18,92.80L92.64,94.86L90.88,95.86L89.55,95.85L87.05,94.43L86.97,93.89L87.32,93.86L87.66,94.13L88.50,94.52L88.44,93.45L88.72,91.76L90.14,89.31L91.77,87.90L92.51,87.52L93.45,87.51zM97.61,97.76L97.96,98.24L96.73,97.73L96.67,97.47zM99.54,98.87L99.90,99.34L98.16,98.59L97.96,98.24zM101.48,99.97L101.83,100.45L100.10,99.70L99.90,99.34zM103.15,101.10L102.58,101.13L101.83,100.45L102.30,100.53zM104.80,101.91L105.15,102.39L103.93,101.88L103.86,101.63zM106.74,103.02L107.09,103.49L105.35,102.74L105.15,102.39zM108.67,104.12L109.03,104.60L107.29,103.85L107.09,103.49zM110.34,105.25L109.77,105.29L109.03,104.60L109.49,104.68zM112.00,106.06L112.35,106.54L111.12,106.03L111.06,105.78zM113.93,107.17L114.29,107.64L112.55,106.89L112.35,106.54zM115.60,108.29L115.03,108.33L114.29,107.64L114.75,107.73zM117.54,109.40L116.97,109.44L116.38,109.07L116.32,108.82L116.64,108.81zM119.19,110.21L119.54,110.69L118.32,110.18L118.25,109.93zM121.13,111.32L121.48,111.80L119.74,111.04L119.54,110.69zM122.79,112.44L122.22,112.48L121.48,111.80L121.94,111.88zM124.45,113.26L124.80,113.73L123.58,113.23L123.51,112.97zM126.38,114.36L126.74,114.84L125.00,114.09L124.80,113.73zM128.32,115.47L128.67,115.95L126.94,115.19L126.74,114.84zM130.25,116.36L131.60,116.61L132.17,117.18L130.50,117.16L128.88,116.30L128.67,115.95zM135.53,119.07L134.93,119.07L134.86,118.77L135.23,118.77zM142.73,123.22L142.12,123.22L142.05,122.92L142.42,122.92zM155.18,130.42L154.58,130.42L154.50,130.12L154.88,130.12zM162.37,134.57L161.77,134.57L161.70,134.27L162.07,134.27zM169.57,138.72L168.97,138.72L168.89,138.42L169.27,138.42zM189.49,146.19L189.47,147.12L189.18,147.95L188.26,148.96L186.91,148.99L186.61,148.69L187.15,146.75L188.54,145.61L188.91,145.62zM182.02,145.91L181.42,145.91L181.35,145.61L181.72,145.61zM217.42,152.26L213.23,158.47L212.42,158.40L211.77,157.81L216.18,151.46L216.32,151.45zM211.65,158.67L211.63,159.01L210.38,159.19L209.11,160.67L205.78,157.80L205.78,157.11L207.36,155.89L208.32,155.61zM213.79,159.21L214.11,159.74L214.00,161.42L216.06,163.63L215.73,164.54L215.46,166.52L214.95,166.42L212.45,163.89L211.03,163.65L210.48,163.32L209.87,163.35L205.51,169.80L204.93,169.42L204.88,169.17L205.79,168.43L209.59,162.79L210.53,162.89L210.95,160.59L212.34,159.21L213.30,158.93zM238.17,164.41L235.65,171.49L234.00,171.47L233.99,170.63L236.22,164.27L237.94,164.17zM236.80,172.47L240.68,172.77L240.67,175.90L236.15,175.83L234.76,176.95L233.38,176.91L231.14,183.31L230.60,183.39L231.79,179.49L233.44,174.78L234.58,172.87L235.57,172.19L236.51,172.19zM233.74,172.76L232.36,173.70L231.79,174.79L226.70,174.79L227.00,173.87L228.41,172.51L232.62,172.49zM232.08,175.51L231.73,175.61L231.82,175.25zM255.22,179.15L256.32,178.56L258.10,178.57L258.64,184.51L263.55,181.31L263.88,181.32L264.49,183.11L259.94,186.06L259.76,187.82L258.92,189.18L257.81,190.02L257.83,194.74L257.57,195.03L256.69,196.39L256.15,189.90L255.81,189.39L256.11,189.18L256.40,187.50L257.71,185.77L258.92,185.23L258.39,184.93L256.60,184.93L255.60,185.61zM255.05,188.96L249.82,192.27L249.14,192.52L249.19,191.95L249.97,191.03L254.77,188.00zM50.56,63.44L50.55,65.22L49.71,67.42L48.36,69.11L46.87,70.12L45.02,70.10L44.38,69.27L46.29,68.15L47.24,67.16L47.33,66.70L47.97,65.96L48.62,64.39L48.89,62.33zM48.08,62.59L48.06,64.66L47.33,66.70L45.22,68.46L44.09,68.55L44.16,66.85L45.04,64.69L46.69,62.75L47.80,62.31zM72.71,78.10L72.70,79.89L72.13,80.99L70.95,82.02L69.64,82.00L69.36,81.73L69.35,79.86L70.49,77.96L71.21,77.54L71.85,77.55zM93.43,90.03L93.44,91.51L93.16,92.33L91.67,93.88L90.10,93.91L90.10,91.49L91.25,89.87L92.33,89.45zM213.53,160.04L213.55,161.53L213.26,162.07L212.07,163.12L211.34,163.10L211.04,162.81L211.03,161.50L212.16,159.85L212.99,159.72zM236.49,173.33L236.52,174.53L235.30,176.08L234.00,176.10L234.00,174.50L234.86,173.15L235.70,172.77zM259.19,186.35L259.47,186.83L259.20,188.08L258.65,188.91L258.01,189.40L256.99,189.37L256.63,188.52L257.13,187.12L257.70,186.31L258.65,186.01z"/><g id="PMI3.0"><g><path style="stroke:#000000;stroke-width:0.250" d="M110.58,54.46L42.67,66.65"/></g><g><path style="fill:#000000" d="M42.67,66.65L44.82,67.28L43.66,66.47L44.47,65.31z"/></g><g><path style="fill:#ffffff" d="M121.78,53.46L121.75,52.91L121.67,52.36L121.54,51.82L121.35,51.30L121.11,50.80L120.83,50.32L120.50,49.88L120.13,49.47L119.72,49.10L119.27,48.77L118.80,48.48L118.30,48.25L117.78,48.06L117.24,47.93L116.69,47.84L116.14,47.82L115.58,47.84L115.04,47.93L114.50,48.06L113.98,48.25L113.48,48.48L113.00,48.77L112.56,49.10L112.15,49.47L111.78,49.88L111.45,50.32L111.16,50.80L110.92,51.30L110.74,51.82L110.60,52.36L110.52,52.91L110.49,53.46L110.52,54.01L110.60,54.56L110.74,55.10L110.92,55.62L111.16,56.12L111.45,56.60L111.78,57.04L112.15,57.45L112.56,57.82L113.00,58.15L113.48,58.44L113.98,58.67L114.50,58.86L115.04,58.99L115.58,59.08L116.14,59.10L116.69,59.08L117.24,58.99L117.78,58.86L118.30,58.67L118.80,58.44L119.27,58.15L119.72,57.82L120.13,57.45L120.50,57.04L120.83,56.60L121.11,56.12L121.35,55.62L121.54,55.10L121.67,54.56L121.75,54.01z"/><path style="stroke:#000000;stroke-width:0.250;stroke-opacity:0.98" d="M121.78,53.46L121.75,52.91L121.67,52.36L121.54,51.82L121.35,51.30L121.11,50.80L120.83,50.32L120.50,49.88L120.13,49.47L119.72,49.10L119.27,48.77L118.80,48.48L118.30,48.25L117.78,48.06L117.24,47.93L116.69,47.84L116.14,47.82L115.58,47.84L115.04,47.93L114.50,48.06L113.98,48.25L113.48,48.48L113.00,48.77L112.56,49.10L112.15,49.47L111.78,49.88L111.45,50.32L111.16,50.80L110.92,51.30L110.74,51.82L110.60,52.36L110.52,52.91L110.49,53.46L110.52,54.01L110.60,54.56L110.74,55.10L110.92,55.62L111.16,56.12L111.45,56.60L111.78,57.04L112.15,57.45L112.56,57.82L113.00,58.15L113.48,58.44L113.98,58.67L114.50,58.86L115.04,58.99L115.58,59.08L116.14,59.10L116.69,59.08L117.24,58.99L117.78,58.86L118.30,58.67L118.80,58.44L119.27,58.15L119.72,57.82L120.13,57.45L120.50,57.04L120.83,56.60L121.11,56.12L121.35,55.62L121.54,55.10L121.67,54.56L121.75,54.01z"/><text xml:space="preserve" fill="#000000" stroke-width="0" x="114.36" y="55.93" font-size="6.39" opacity="1.00" font-family="MS Shell Dlg">3</text></g></g><g id="PMI4.0"><g><path style="stroke:#000000;stroke-width:0.250" d="M134.71,73.62L66.82,81.53"/></g><g><path style="fill:#000000" d="M66.82,81.53L68.92,82.29L67.81,81.42L68.69,80.31z"/></g><g><path style="fill:#ffffff" d="M145.96,72.97L145.93,72.41L145.85,71.87L145.72,71.33L145.53,70.81L145.29,70.31L145.01,69.83L144.68,69.39L144.31,68.98L143.90,68.60L143.45,68.27L142.98,67.99L142.47,67.75L141.95,67.57L141.42,67.43L140.87,67.35L140.32,67.32L139.76,67.35L139.21,67.43L138.68,67.57L138.16,67.75L137.66,67.99L137.18,68.27L136.74,68.60L136.32,68.98L135.95,69.39L135.62,69.83L135.34,70.31L135.10,70.81L134.92,71.33L134.78,71.87L134.70,72.41L134.67,72.97L134.70,73.52L134.78,74.07L134.92,74.60L135.10,75.13L135.34,75.63L135.62,76.10L135.95,76.55L136.32,76.96L136.74,77.33L137.18,77.66L137.66,77.94L138.16,78.18L138.68,78.37L139.21,78.50L139.76,78.58L140.32,78.61L140.87,78.58L141.42,78.50L141.95,78.37L142.47,78.18L142.98,77.94L143.45,77.66L143.90,77.33L144.31,76.96L144.68,76.55L145.01,76.10L145.29,75.63L145.53,75.13L145.72,74.60L145.85,74.07L145.93,73.52z"/><path style="stroke:#000000;stroke-width:0.250;stroke-opacity:0.98" d="M145.96,72.97L145.93,72.41L145.85,71.87L145.72,71.33L145.53,70.81L145.29,70.31L145.01,69.83L144.68,69.39L144.31,68.98L143.90,68.60L143.45,68.27L142.98,67.99L142.47,67.75L141.95,67.57L141.42,67.43L140.87,67.35L140.32,67.32L139.76,67.35L139.21,67.43L138.68,67.57L138.16,67.75L137.66,67.99L137.18,68.27L136.74,68.60L136.32,68.98L135.95,69.39L135.62,69.83L135.34,70.31L135.10,70.81L134.92,71.33L134.78,71.87L134.70,72.41L134.67,72.97L134.70,73.52L134.78,74.07L134.92,74.60L135.10,75.13L135.34,75.63L135.62,76.10L135.95,76.55L136.32,76.96L136.74,77.33L137.18,77.66L137.66,77.94L138.16,78.18L138.68,78.37L139.21,78.50L139.76,78.58L140.32,78.61L140.87,78.58L141.42,78.50L141.95,78.37L142.47,78.18L142.98,77.94L143.45,77.66L143.90,77.33L144.31,76.96L144.68,76.55L145.01,76.10L145.29,75.63L145.53,75.13L145.72,74.60L145.85,74.07L145.93,73.52z"/><text xml:space="preserve" fill="#000000" stroke-width="0" x="138.44" y="75.44" font-size="6.74" opacity="1.00" font-family="MS Shell Dlg">4</text></g><g><text xml:space="preserve" fill="#000000" stroke-width="0" x="143.60" y="67.68" font-size="6.89" opacity="1.00" font-family="MS Shell Dlg">x2</text></g></g><g id="PMI1.0"><g><path style="stroke:#000000;stroke-width:0.250" d="M160.09,82.43L133.09,113.96"/></g><g><path style="fill:#000000" d="M133.09,113.96L135.15,113.09L133.74,113.20L133.63,111.79z"/></g><g><path style="fill:#ffffff" d="M169.40,78.15L169.37,77.59L169.29,77.05L169.16,76.51L168.97,75.99L168.73,75.49L168.45,75.01L168.12,74.57L167.75,74.16L167.34,73.79L166.89,73.46L166.42,73.17L165.92,72.93L165.39,72.75L164.86,72.61L164.31,72.53L163.76,72.50L163.20,72.53L162.65,72.61L162.12,72.75L161.60,72.93L161.10,73.17L160.62,73.46L160.18,73.79L159.77,74.16L159.39,74.57L159.06,75.01L158.78,75.49L158.54,75.99L158.36,76.51L158.22,77.05L158.14,77.59L158.11,78.15L158.14,78.70L158.22,79.25L158.36,79.79L158.54,80.31L158.78,80.81L159.06,81.28L159.39,81.73L159.77,82.14L160.18,82.51L160.62,82.84L161.10,83.12L161.60,83.36L162.12,83.55L162.65,83.68L163.20,83.76L163.76,83.79L164.31,83.76L164.86,83.68L165.39,83.55L165.92,83.36L166.42,83.12L166.89,82.84L167.34,82.51L167.75,82.14L168.12,81.73L168.45,81.28L168.73,80.81L168.97,80.31L169.16,79.79L169.29,79.25L169.37,78.70z"/><path style="stroke:#000000;stroke-width:0.250;stroke-opacity:0.98" d="M169.40,78.15L169.37,77.59L169.29,77.05L169.16,76.51L168.97,75.99L168.73,75.49L168.45,75.01L168.12,74.57L167.75,74.16L167.34,73.79L166.89,73.46L166.42,73.17L165.92,72.93L165.39,72.75L164.86,72.61L164.31,72.53L163.76,72.50L163.20,72.53L162.65,72.61L162.12,72.75L161.60,72.93L161.10,73.17L160.62,73.46L160.18,73.79L159.77,74.16L159.39,74.57L159.06,75.01L158.78,75.49L158.54,75.99L158.36,76.51L158.22,77.05L158.14,77.59L158.11,78.15L158.14,78.70L158.22,79.25L158.36,79.79L158.54,80.31L158.78,80.81L159.06,81.28L159.39,81.73L159.77,82.14L160.18,82.51L160.62,82.84L161.10,83.12L161.60,83.36L162.12,83.55L162.65,83.68L163.20,83.76L163.76,83.79L164.31,83.76L164.86,83.68L165.39,83.55L165.92,83.36L166.42,83.12L166.89,82.84L167.34,82.51L167.75,82.14L168.12,81.73L168.45,81.28L168.73,80.81L168.97,80.31L169.16,79.79L169.29,79.25L169.37,78.70z"/><text xml:space="preserve" fill="#000000" stroke-width="0" x="162.22" y="80.62" font-size="5.55" opacity="1.00" font-family="MS Shell Dlg">1</text></g></g><g id="PMI2.0"><g><path style="stroke:#000000;stroke-width:0.250" d="M213.14,108.16L236.40,174.72"/></g><g><path style="fill:#000000" d="M236.40,174.72L236.69,172.51L236.07,173.78L234.80,173.17z"/></g><g><path style="fill:#ffffff" d="M216.92,102.84L216.89,102.28L216.81,101.73L216.68,101.20L216.49,100.68L216.25,100.18L215.97,99.70L215.64,99.26L215.27,98.85L214.86,98.47L214.41,98.14L213.94,97.86L213.44,97.62L212.91,97.44L212.38,97.30L211.83,97.22L211.28,97.19L210.72,97.22L210.17,97.30L209.64,97.44L209.12,97.62L208.62,97.86L208.14,98.14L207.70,98.47L207.29,98.85L206.91,99.26L206.58,99.70L206.30,100.18L206.06,100.68L205.88,101.20L205.74,101.73L205.66,102.28L205.63,102.84L205.66,103.39L205.74,103.94L205.88,104.47L206.06,105.00L206.30,105.50L206.58,105.97L206.91,106.42L207.29,106.83L207.70,107.20L208.14,107.53L208.62,107.81L209.12,108.05L209.64,108.24L210.17,108.37L210.72,108.45L211.28,108.48L211.83,108.45L212.38,108.37L212.91,108.24L213.44,108.05L213.94,107.81L214.41,107.53L214.86,107.20L215.27,106.83L215.64,106.42L215.97,105.97L216.25,105.50L216.49,105.00L216.68,104.47L216.81,103.94L216.89,103.39z"/><path style="stroke:#000000;stroke-width:0.250;stroke-opacity:0.98" d="M216.92,102.84L216.89,102.28L216.81,101.73L216.68,101.20L216.49,100.68L216.25,100.18L215.97,99.70L215.64,99.26L215.27,98.85L214.86,98.47L214.41,98.14L213.94,97.86L213.44,97.62L212.91,97.44L212.38,97.30L211.83,97.22L211.28,97.19L210.72,97.22L210.17,97.30L209.64,97.44L209.12,97.62L208.62,97.86L208.14,98.14L207.70,98.47L207.29,98.85L206.91,99.26L206.58,99.70L206.30,100.18L206.06,100.68L205.88,101.20L205.74,101.73L205.66,102.28L205.63,102.84L205.66,103.39L205.74,103.94L205.88,104.47L206.06,105.00L206.30,105.50L206.58,105.97L206.91,106.42L207.29,106.83L207.70,107.20L208.14,107.53L208.62,107.81L209.12,108.05L209.64,108.24L210.17,108.37L210.72,108.45L211.28,108.48L211.83,108.45L212.38,108.37L212.91,108.24L213.44,108.05L213.94,107.81L214.41,107.53L214.86,107.20L215.27,106.83L215.64,106.42L215.97,105.97L216.25,105.50L216.49,105.00L216.68,104.47L216.81,103.94L216.89,103.39z"/><text xml:space="preserve" fill="#000000" stroke-width="0" x="209.46" y="105.30" font-size="6.54" opacity="1.00" font-family="MS Shell Dlg">2</text></g><g><text xml:space="preserve" fill="#000000" stroke-width="0" x="214.50" y="97.55" font-size="6.89" opacity="1.00" font-family="MS Shell Dlg">x3</text></g></g><g id="Actor_.0"/><g id="Actor_4.0"><g style="stroke:#000000;stroke-width:0.176"><path d="M67.90,80.64 C68.01,80.08 68.02,80.06 68.22,79.53 C68.44,78.98 68.45,78.96 68.75,78.44 C69.04,77.93 69.05,77.91 69.43,77.45 C69.78,77.00 69.80,76.98 70.22,76.61 C70.61,76.27 70.63,76.24 71.07,75.99 C71.46,75.77 71.50,75.74 71.92,75.63 C72.28,75.53 72.34,75.52 72.71,75.55 "/><path d="M71.53,81.62 C71.31,81.79 71.31,81.80 71.07,81.95 C71.00,82.00 70.99,82.01 70.92,82.04 C70.62,82.13 70.62,82.14 70.32,82.21 "/><path d="M72.85,78.05 C72.94,78.35 72.95,78.39 72.95,78.70 C72.95,79.07 72.94,79.10 72.85,79.46 C72.75,79.86 72.74,79.89 72.56,80.26 "/><path d="M68.75,83.81 L68.22,83.33 L67.90,82.60 L67.82,82.02 "/><path d="M67.88,80.80 L67.90,80.64 "/><path d="M72.71,75.55 L73.40,75.76 "/><path d="M71.57,81.58 L71.53,81.62 "/><path d="M70.32,82.21 L69.80,82.12 L69.48,81.83 "/><path d="M71.07,77.64 L71.53,77.42 L72.10,77.38 L72.55,77.60 L72.85,78.05 "/></g><g style="stroke:#000000;stroke-width:0.529"><path d="M73.21,81.39 C73.00,81.77 72.99,81.79 72.71,82.12 C72.35,82.56 72.34,82.59 71.92,82.96 C71.54,83.30 71.51,83.33 71.07,83.58 C70.68,83.80 70.64,83.83 70.22,83.94 C69.86,84.04 69.80,84.04 69.43,84.02 "/><path d="M66.35,82.24 C66.14,81.93 66.11,81.88 66.02,81.52 C65.90,81.09 65.91,81.04 65.91,80.60 C65.91,80.09 65.91,80.06 66.02,79.55 C66.13,79.00 66.14,78.97 66.35,78.45 C66.56,77.89 66.57,77.87 66.87,77.36 C67.17,76.84 67.18,76.83 67.55,76.36 C67.90,75.92 67.92,75.90 68.34,75.53 C68.73,75.18 68.75,75.16 69.19,74.90 C69.58,74.68 69.62,74.66 70.04,74.54 C70.40,74.45 70.46,74.44 70.84,74.46 "/><path d="M73.92,76.24 C74.12,76.55 74.15,76.61 74.25,76.97 C74.36,77.39 74.36,77.44 74.36,77.89 C74.36,78.40 74.35,78.43 74.25,78.93 C74.13,79.49 74.09,79.49 73.92,80.04 C73.91,80.07 73.91,80.07 73.89,80.10 "/><path d="M69.22,80.50 C69.27,80.10 69.28,80.08 69.42,79.71 C69.57,79.31 69.58,79.29 69.80,78.92 C70.02,78.56 70.03,78.54 70.32,78.23 C70.58,77.95 70.61,77.96 70.92,77.71 C70.98,77.67 70.99,77.66 71.07,77.64 "/><path d="M71.07,77.64 C71.06,78.00 71.06,78.03 70.97,78.38 C70.87,78.78 70.86,78.80 70.67,79.18 C70.49,79.56 70.48,79.58 70.22,79.92 C69.98,80.25 69.94,80.24 69.65,80.54 C69.61,80.58 69.60,80.58 69.55,80.61 "/><path d="M69.43,84.02 L68.75,83.81 L66.87,82.73 L66.35,82.24 "/><path d="M70.84,74.46 L71.52,74.67 L73.40,75.76 L73.92,76.24 "/><path d="M69.22,80.64 L69.22,80.50 "/></g></g><g id="Actor_3.0"><g style="stroke:#000000;stroke-width:0.176"><path d="M31.19,44.50 C30.77,44.24 30.72,44.21 30.24,44.08 C29.73,43.94 29.69,43.98 29.15,43.93 C29.03,43.92 29.02,43.95 28.89,43.96 C28.43,44.01 28.41,43.96 27.97,44.07 C27.34,44.21 27.31,44.22 26.72,44.48 C26.07,44.76 26.05,44.77 25.45,45.15 C24.80,45.56 24.78,45.57 24.19,46.07 C23.55,46.59 23.54,46.60 22.97,47.20 C22.37,47.82 22.36,47.84 21.83,48.52 C21.28,49.22 21.28,49.23 20.81,49.99 C20.33,50.74 20.32,50.76 19.92,51.56 C19.53,52.35 19.52,52.36 19.21,53.19 C18.91,53.99 18.90,54.00 18.68,54.83 C18.48,55.62 18.48,55.64 18.36,56.44 C18.28,57.05 18.32,57.07 18.28,57.69 C18.27,57.83 18.25,57.84 18.26,57.97 C18.29,58.67 18.25,58.69 18.36,59.37 C18.46,59.99 18.47,60.03 18.68,60.61 C18.88,61.14 18.90,61.19 19.21,61.65 C19.50,62.08 19.53,62.13 19.92,62.46 C20.30,62.78 20.35,62.81 20.81,63.01 "/><path d="M27.90,48.83 C27.54,48.76 27.47,48.76 27.10,48.81 C26.67,48.87 26.63,48.89 26.22,49.06 C25.76,49.27 25.77,49.32 25.32,49.59 C25.30,49.60 25.30,49.60 25.28,49.62 C24.86,49.98 24.82,49.95 24.44,50.35 C24.01,50.78 24.00,50.80 23.64,51.29 C23.26,51.81 23.25,51.82 22.96,52.38 C22.66,52.93 22.65,52.95 22.44,53.54 C22.24,54.10 22.24,54.12 22.12,54.70 C22.05,55.03 22.09,55.04 22.05,55.38 C22.03,55.59 22.00,55.60 22.01,55.80 C22.04,56.29 22.01,56.32 22.12,56.78 C22.22,57.17 22.24,57.22 22.44,57.57 "/><path d="M44.50,58.32 C44.04,58.69 44.03,58.70 43.63,59.13 C43.04,59.76 43.02,59.76 42.49,60.45 C41.95,61.15 41.94,61.16 41.47,61.91 C40.99,62.67 40.98,62.68 40.59,63.48 C40.19,64.28 40.18,64.29 39.87,65.12 C39.57,65.92 39.58,65.93 39.35,66.76 C39.24,67.12 39.24,67.13 39.20,67.51 "/><path d="M42.41,75.48 C41.95,75.28 41.90,75.25 41.52,74.93 C41.13,74.60 41.10,74.55 40.81,74.12 C40.50,73.66 40.48,73.61 40.29,73.08 C40.07,72.50 40.07,72.46 39.97,71.84 C39.85,71.16 39.86,71.13 39.86,70.44 C39.86,69.68 39.86,69.66 39.97,68.91 C40.08,68.11 40.08,68.09 40.29,67.30 C40.50,66.47 40.51,66.46 40.81,65.66 C41.12,64.83 41.16,64.84 41.52,64.03 C41.56,63.96 41.56,63.96 41.60,63.89 C42.00,63.17 41.97,63.15 42.41,62.46 C42.88,61.70 42.89,61.69 43.43,60.99 C43.96,60.31 43.97,60.29 44.57,59.67 C45.14,59.07 45.15,59.06 45.79,58.54 C46.38,58.04 46.40,58.03 47.05,57.62 C47.65,57.24 47.67,57.23 48.32,56.95 C48.92,56.69 48.95,56.73 49.57,56.54 C49.63,56.52 49.63,56.53 49.69,56.52 C50.22,56.46 50.24,56.40 50.75,56.40 C51.28,56.41 51.34,56.41 51.84,56.55 C52.32,56.68 52.37,56.71 52.80,56.97 "/><path d="M50.36,65.88 C50.32,66.12 50.31,66.13 50.22,66.36 C49.98,66.91 49.99,66.93 49.69,67.45 C49.40,67.96 49.39,67.98 49.01,68.44 C48.66,68.88 48.64,68.90 48.22,69.28 C47.84,69.62 47.81,69.64 47.37,69.90 C46.98,70.12 46.94,70.15 46.52,70.26 C46.16,70.36 46.10,70.36 45.73,70.34 "/><path d="M44.33,69.21 C44.47,69.23 44.51,69.22 44.64,69.18 C45.07,69.03 45.11,69.04 45.49,68.81 C45.94,68.56 45.96,68.54 46.34,68.19 C46.77,67.82 46.78,67.80 47.14,67.36 C47.51,66.89 47.48,66.86 47.82,66.36 C47.83,66.35 47.83,66.35 47.83,66.33 "/><path d="M44.20,68.66 C44.54,68.65 44.59,68.65 44.92,68.54 C45.31,68.40 45.34,68.38 45.68,68.15 C46.08,67.89 46.10,67.87 46.44,67.54 C46.80,67.18 46.80,67.15 47.12,66.74 C47.23,66.60 47.23,66.59 47.31,66.43 "/><path d="M44.60,65.69 C44.78,65.21 44.79,65.20 45.05,64.76 C45.35,64.25 45.35,64.23 45.73,63.76 C46.08,63.32 46.10,63.30 46.52,62.93 C46.90,62.59 46.93,62.58 47.37,62.31 C47.63,62.15 47.66,62.14 47.95,62.06 "/><path d="M48.08,62.23 C48.22,62.56 48.24,62.61 48.28,62.96 C48.34,63.39 48.33,63.42 48.28,63.85 C48.23,64.33 48.20,64.34 48.08,64.82 C48.04,64.95 48.04,64.97 47.97,65.08 "/><path d="M48.42,65.00 C48.58,64.61 48.59,64.58 48.67,64.17 C48.76,63.66 48.78,63.63 48.78,63.12 C48.78,62.68 48.76,62.65 48.67,62.20 C48.64,62.06 48.62,62.03 48.54,61.91 "/><path d="M50.22,62.56 C50.42,62.87 50.45,62.93 50.55,63.29 C50.66,63.71 50.63,63.75 50.66,64.21 C50.67,64.40 50.66,64.42 50.61,64.61 "/><path d="M33.02,51.70 L28.58,49.13 L27.90,48.83 "/><path d="M22.44,57.57 L22.96,58.13 L27.71,60.88 "/><path d="M45.73,70.34 L45.05,70.13 L44.52,69.64 L44.33,69.21 L44.20,68.92 L44.16,68.65 L44.20,68.66 "/><path d="M44.16,68.65 L44.08,68.00 L44.19,66.99 "/><path d="M47.95,62.06 L48.08,62.23 "/><path d="M48.54,61.91 L48.22,61.95 L47.95,62.06 "/><path d="M48.54,61.91 L49.01,61.87 L49.70,62.08 L50.22,62.56 "/></g><g style="stroke:#000000;stroke-width:0.529"><path d="M27.71,60.88 C27.25,61.31 27.24,61.32 26.72,61.69 C26.12,62.12 26.11,62.14 25.45,62.49 C24.85,62.80 24.83,62.82 24.19,63.03 C23.61,63.22 23.57,63.23 22.97,63.30 C22.42,63.36 22.37,63.37 21.83,63.30 C21.33,63.23 21.28,63.21 20.81,63.01 C20.32,62.81 20.33,62.75 19.87,62.47 C19.42,62.20 19.36,62.24 18.98,61.92 C18.59,61.58 18.56,61.54 18.27,61.11 C17.96,60.64 17.94,60.60 17.75,60.07 C17.53,59.49 17.52,59.45 17.42,58.83 C17.31,58.15 17.32,58.12 17.32,57.43 C17.32,56.67 17.32,56.65 17.42,55.90 C17.53,55.09 17.54,55.08 17.75,54.29 C17.96,53.46 17.97,53.45 18.27,52.65 C18.58,51.82 18.59,51.81 18.98,51.01 C19.38,50.21 19.39,50.20 19.87,49.44 C20.34,48.69 20.35,48.68 20.89,47.98 C21.42,47.29 21.43,47.28 22.03,46.66 C22.60,46.06 22.61,46.05 23.25,45.52 C23.84,45.03 23.86,45.02 24.51,44.61 C25.11,44.23 25.13,44.21 25.78,43.93 C26.38,43.68 26.41,43.66 27.03,43.52 C27.59,43.40 27.64,43.39 28.21,43.39 C28.74,43.39 28.79,43.40 29.30,43.54 C29.78,43.67 29.79,43.72 30.25,43.96 C30.73,44.20 30.76,44.19 31.19,44.50 C31.61,44.79 31.66,44.81 31.99,45.18 C32.35,45.58 32.37,45.63 32.62,46.11 C32.88,46.63 32.89,46.67 33.04,47.25 C33.21,47.89 33.21,47.92 33.26,48.58 C33.31,49.30 33.31,49.32 33.26,50.05 C33.20,50.83 33.15,50.84 33.04,51.62 C33.04,51.66 33.03,51.66 33.02,51.70 "/><path d="M54.36,65.16 C54.31,65.44 54.31,65.45 54.22,65.72 C53.93,66.55 53.95,66.57 53.60,67.37 C53.24,68.19 53.23,68.20 52.80,68.98 C52.36,69.76 52.35,69.77 51.84,70.50 C51.33,71.22 51.33,71.23 50.75,71.90 C50.20,72.54 50.19,72.55 49.57,73.13 C48.98,73.67 48.97,73.69 48.32,74.16 C47.72,74.59 47.69,74.56 47.05,74.96 C47.01,74.98 47.00,74.98 46.95,75.00 C46.37,75.25 46.38,75.31 45.79,75.50 C45.21,75.69 45.17,75.70 44.57,75.77 C44.02,75.83 43.97,75.84 43.43,75.77 C42.93,75.70 42.88,75.68 42.41,75.48 C41.93,75.28 41.93,75.22 41.47,74.94 C41.02,74.67 40.96,74.71 40.59,74.39 C40.20,74.05 40.16,74.01 39.87,73.58 C39.56,73.11 39.54,73.07 39.35,72.54 C39.13,71.96 39.13,71.92 39.03,71.30 C38.91,70.62 38.92,70.59 38.92,69.90 C38.92,69.14 38.94,69.13 39.03,68.37 C39.08,67.94 39.08,67.92 39.20,67.51 "/><path d="M54.67,63.88 C54.81,63.21 54.81,63.19 54.86,62.52 C54.90,61.79 54.91,61.77 54.86,61.05 C54.81,60.39 54.81,60.36 54.64,59.72 C54.49,59.14 54.48,59.10 54.22,58.58 C53.97,58.10 53.95,58.05 53.60,57.65 C53.26,57.28 53.22,57.26 52.80,56.97 C52.36,56.66 52.34,56.67 51.86,56.43 C51.39,56.19 51.38,56.14 50.90,56.01 C50.40,55.87 50.34,55.86 49.81,55.86 C49.24,55.86 49.20,55.87 48.63,55.99 C48.01,56.13 47.98,56.15 47.39,56.40 C46.73,56.68 46.71,56.70 46.11,57.08 C45.46,57.49 45.47,57.52 44.85,57.99 C44.66,58.14 44.65,58.14 44.50,58.32 "/><path d="M39.20,67.51 L27.71,60.88 "/><path d="M44.50,58.32 L33.02,51.70 "/></g></g><g id="Actor_4.1"><g style="stroke:#000000;stroke-width:0.176"><path d="M88.89,95.25 C88.68,94.94 88.65,94.89 88.56,94.53 C88.44,94.10 88.45,94.06 88.45,93.61 C88.45,93.10 88.45,93.07 88.56,92.56 C88.67,92.01 88.68,91.99 88.89,91.46 C89.10,90.90 89.11,90.89 89.41,90.37 C89.71,89.86 89.72,89.84 90.09,89.37 C90.44,88.93 90.46,88.91 90.88,88.54 C91.27,88.20 91.29,88.17 91.73,87.92 C92.12,87.69 92.16,87.67 92.58,87.56 C92.94,87.46 93.00,87.45 93.38,87.48 "/><path d="M93.51,89.98 C93.60,90.28 93.61,90.32 93.61,90.63 C93.61,91.00 93.60,91.03 93.51,91.39 C93.41,91.79 93.40,91.82 93.22,92.19 C93.03,92.57 93.02,92.59 92.76,92.94 C92.52,93.26 92.50,93.27 92.19,93.55 C91.99,93.74 91.97,93.72 91.73,93.88 C91.66,93.93 91.66,93.94 91.58,93.96 C91.28,94.06 91.28,94.06 90.98,94.13 "/><path d="M89.41,95.74 L88.89,95.25 "/><path d="M93.38,87.48 L94.06,87.69 "/><path d="M91.73,89.57 L92.19,89.34 L92.76,89.30 L93.22,89.52 L93.51,89.98 "/><path d="M90.98,94.13 L90.46,94.04 L90.08,93.70 L89.88,93.14 L89.88,92.76 "/></g><g style="stroke:#000000;stroke-width:0.529"><path d="M86.57,92.53 C86.57,92.01 86.58,91.98 86.68,91.48 C86.79,90.93 86.80,90.90 87.01,90.37 C87.22,89.82 87.23,89.80 87.53,89.29 C87.83,88.77 87.84,88.75 88.21,88.29 C88.57,87.85 88.58,87.83 89.00,87.45 C89.39,87.11 89.41,87.09 89.85,86.83 C90.24,86.61 90.28,86.58 90.71,86.47 C91.07,86.37 91.13,86.37 91.50,86.39 "/><path d="M94.58,88.17 C94.79,88.48 94.81,88.54 94.91,88.90 C95.02,89.32 95.02,89.37 95.02,89.82 C95.02,90.33 95.01,90.36 94.91,90.86 C94.79,91.42 94.79,91.44 94.58,91.97 C94.37,92.52 94.35,92.54 94.06,93.06 C93.76,93.57 93.75,93.59 93.38,94.05 C93.02,94.49 93.01,94.51 92.58,94.89 C92.20,95.23 92.18,95.25 91.73,95.51 C91.35,95.73 91.31,95.76 90.88,95.87 C90.52,95.97 90.46,95.97 90.09,95.95 "/><path d="M89.88,92.43 C89.94,92.03 89.94,92.01 90.08,91.63 C90.23,91.24 90.24,91.21 90.46,90.85 C90.68,90.49 90.69,90.47 90.98,90.16 C91.24,89.88 91.27,89.88 91.58,89.64 C91.64,89.59 91.66,89.58 91.73,89.57 "/><path d="M91.73,89.57 C91.72,89.93 91.72,89.96 91.63,90.31 C91.53,90.71 91.52,90.73 91.34,91.11 C91.15,91.49 91.14,91.51 90.88,91.85 C90.64,92.18 90.62,92.19 90.32,92.47 C90.13,92.63 90.11,92.65 89.88,92.76 "/><path d="M91.50,86.39 L92.18,86.60 L94.06,87.69 L94.58,88.17 "/><path d="M90.09,95.95 L89.41,95.74 L87.53,94.65 L87.01,94.17 L86.68,93.44 L86.57,92.53 "/><path d="M89.88,92.76 L89.88,92.43 "/></g></g><g id="Actor_2.0"><g style="stroke:#000000;stroke-width:0.176"><path d="M228.49,172.72 C228.10,172.86 228.05,172.89 227.73,173.15 C227.39,173.43 227.35,173.48 227.10,173.85 C226.83,174.24 226.81,174.29 226.65,174.74 "/><path d="M233.76,172.85 C233.50,172.92 233.49,172.92 233.24,173.03 C232.99,173.14 232.98,173.15 232.76,173.30 C232.57,173.42 232.56,173.43 232.41,173.58 C232.24,173.76 232.23,173.77 232.10,173.97 C232.01,174.12 232.01,174.13 231.95,174.29 C231.90,174.45 231.90,174.46 231.88,174.63 C231.86,174.75 231.86,174.76 231.87,174.87 "/><path d="M233.40,176.15 C233.33,175.84 233.32,175.80 233.34,175.48 C233.36,175.10 233.37,175.07 233.48,174.70 C233.60,174.30 233.61,174.28 233.81,173.91 C234.01,173.53 234.03,173.51 234.29,173.18 C234.55,172.87 234.58,172.88 234.88,172.60 C234.92,172.56 234.94,172.55 235.00,172.53 "/><path d="M234.54,171.34 C234.42,171.33 234.41,171.34 234.29,171.35 C234.17,171.36 234.16,171.36 234.05,171.40 C233.85,171.47 233.84,171.47 233.66,171.57 "/><path d="M236.40,174.72 C236.28,175.02 236.27,175.03 236.10,175.30 C235.92,175.56 235.91,175.58 235.69,175.80 C235.49,176.00 235.47,176.01 235.24,176.16 C235.03,176.28 235.00,176.29 234.78,176.34 "/><path d="M233.85,175.75 C233.80,175.52 233.79,175.49 233.81,175.24 C233.82,174.96 233.85,174.95 233.92,174.66 C233.93,174.59 233.94,174.58 233.98,174.51 "/><path d="M239.06,164.55 C238.57,164.38 238.57,164.38 238.07,164.25 C237.62,164.13 237.61,164.13 237.15,164.05 C236.78,163.99 236.77,163.99 236.39,163.97 "/><path d="M228.42,172.40 L228.49,172.72 L233.76,172.85 L233.81,172.53 L232.15,172.49 "/><path d="M232.61,176.11 L232.63,176.06 L232.77,175.96 L229.96,183.81 "/><path d="M232.77,175.96 L233.02,176.22 L230.40,183.55 "/><path d="M230.08,183.46 L232.61,176.13 "/><path d="M231.87,174.87 L231.50,174.86 "/><path d="M234.08,176.93 L233.66,176.65 L233.40,176.15 "/><path d="M233.53,176.62 L232.99,176.32 "/><path d="M234.59,171.35 L234.54,171.34 "/><path d="M233.66,171.57 L233.43,171.44 L233.51,171.21 "/><path d="M234.78,176.34 L234.37,176.33 L234.05,176.13 L233.85,175.75 "/><path d="M234.58,173.47 L234.96,173.09 L235.15,172.97 "/><path d="M233.66,171.57 L234.17,170.16 "/><path d="M236.39,163.97 L234.82,168.36 "/><path d="M240.85,175.74 L236.33,175.62 L236.21,175.77 "/><path d="M236.33,175.62 L236.39,175.55 L236.80,174.78 L236.87,174.56 "/><path d="M236.53,173.26 L236.49,173.13 L236.48,173.11 "/><path d="M236.14,172.13 L236.58,172.26 "/><path d="M236.35,172.13 L236.09,171.99 "/><path d="M240.84,172.65 L236.83,172.55 L236.71,172.42 "/><path d="M236.83,172.55 L236.92,172.65 L237.08,173.25 L237.04,173.99 L236.92,174.38 "/><path d="M236.39,163.97 L236.15,163.84 "/></g><g style="stroke:#000000;stroke-width:0.529"><path d="M236.15,163.84 C236.45,163.85 236.46,163.85 236.76,163.89 C237.12,163.94 237.12,163.94 237.47,164.02 C237.87,164.10 237.87,164.10 238.25,164.21 C238.67,164.33 238.67,164.33 239.07,164.47 "/><path d="M240.84,172.65 C240.67,173.13 240.66,173.17 240.61,173.67 C240.55,174.18 240.55,174.22 240.61,174.73 C240.67,175.22 240.68,175.26 240.85,175.74 "/><path d="M236.21,175.77 C236.07,176.00 236.05,176.02 235.85,176.22 C235.58,176.48 235.56,176.51 235.24,176.69 C234.97,176.85 234.93,176.87 234.63,176.94 "/><path d="M226.41,174.60 C226.55,174.22 226.56,174.20 226.76,173.85 C226.96,173.52 226.97,173.50 227.23,173.22 C227.47,172.95 227.49,172.93 227.79,172.73 C228.07,172.53 228.10,172.52 228.42,172.40 "/><path d="M232.15,172.49 C232.25,172.29 232.27,172.27 232.42,172.10 C232.68,171.79 232.69,171.77 233.00,171.52 C233.22,171.34 233.25,171.32 233.51,171.21 "/><path d="M233.98,174.51 C234.04,174.29 234.05,174.27 234.16,174.07 C234.32,173.78 234.34,173.79 234.52,173.52 C234.54,173.49 234.55,173.49 234.58,173.47 "/><path d="M234.58,173.47 C234.57,173.55 234.56,173.56 234.53,173.64 C234.39,173.93 234.37,173.93 234.22,174.22 C234.21,174.22 234.21,174.23 234.21,174.23 "/><path d="M234.68,167.96 L236.15,163.84 "/><path d="M239.07,164.47 L239.06,164.55 L236.35,172.13 L236.58,172.26 L236.71,172.42 L240.61,172.51 L240.84,172.65 "/><path d="M240.85,175.74 L240.61,175.88 L236.21,175.77 "/><path d="M234.63,176.94 L234.08,176.93 L233.53,176.62 L231.10,183.41 L230.55,183.46 L230.40,183.55 L230.27,183.90 L229.96,183.81 L229.93,183.58 L232.61,176.11 L231.78,175.57 L231.52,175.07 L231.50,174.86 L226.65,174.74 L226.41,174.60 "/><path d="M228.42,172.40 L232.15,172.49 "/><path d="M233.51,171.21 L234.03,169.76 "/><path d="M229.96,183.81 L230.08,183.46 "/><path d="M234.21,174.23 L233.98,174.51 "/></g></g><g id="Actor_1.0"><g style="stroke:#000000;stroke-width:0.176"><path d="M129.93,116.10 C129.91,115.75 129.91,115.71 129.98,115.36 C130.06,114.96 130.07,114.94 130.23,114.56 C130.37,114.23 130.41,114.24 130.59,113.91 C130.62,113.85 130.61,113.84 130.65,113.80 C130.91,113.47 130.89,113.43 131.19,113.14 C131.46,112.88 131.48,112.86 131.80,112.67 C132.07,112.52 132.11,112.50 132.41,112.44 "/><path d="M131.80,116.99 C131.71,116.79 131.70,116.75 131.69,116.54 C131.67,116.27 131.67,116.24 131.72,115.98 C131.78,115.68 131.79,115.66 131.91,115.38 C132.04,115.09 132.04,115.07 132.22,114.80 C132.40,114.55 132.41,114.53 132.63,114.31 C132.83,114.12 132.85,114.10 133.09,113.96 "/><path d="M186.75,148.32 C186.73,148.05 186.74,148.03 186.79,147.76 C186.84,147.47 186.86,147.45 186.97,147.17 C187.07,146.94 187.09,146.94 187.21,146.72 C187.25,146.66 187.24,146.65 187.29,146.59 C187.48,146.34 187.47,146.32 187.69,146.10 C187.89,145.90 187.91,145.89 188.15,145.75 C188.35,145.63 188.38,145.62 188.61,145.57 "/><path d="M130.42,117.11 L130.08,116.71 L129.93,116.10 "/><path d="M132.41,112.44 L132.95,112.47 "/><path d="M132.23,117.39 L132.05,117.29 L131.80,116.99 "/><path d="M134.23,113.96 L134.00,113.83 "/><path d="M187.12,149.07 L186.86,148.77 L186.75,148.32 "/><path d="M188.61,145.57 L189.02,145.59 "/></g><g style="stroke:#000000;stroke-width:0.529"><path d="M98.60,92.92 C98.30,93.00 98.27,93.01 97.99,93.16 C97.78,93.27 97.79,93.31 97.59,93.46 C97.49,93.54 97.47,93.53 97.38,93.63 C97.09,93.93 97.07,93.94 96.84,94.28 C96.60,94.63 96.58,94.65 96.42,95.05 C96.26,95.42 96.25,95.45 96.17,95.84 C96.10,96.19 96.10,96.23 96.12,96.58 "/><path d="M96.61,97.59 C113.48,107.39 113.49,107.40 130.42,117.11 C130.62,117.23 130.67,117.23 130.91,117.27 C131.55,117.37 131.57,117.37 132.23,117.39 "/><path d="M187.92,149.11 C188.16,149.02 188.18,149.00 188.38,148.85 C188.62,148.66 188.63,148.65 188.82,148.42 C189.03,148.17 189.04,148.16 189.19,147.88 C189.34,147.60 189.35,147.58 189.44,147.28 C189.53,147.01 189.52,146.99 189.56,146.70 C189.57,146.63 189.55,146.62 189.54,146.54 C189.53,146.36 189.53,146.36 189.52,146.19 "/><path d="M133.35,112.73 L132.95,112.47 L99.14,92.95 L98.60,92.92 "/><path d="M96.12,96.58 L96.27,97.19 L96.61,97.59 "/><path d="M132.23,117.39 L187.12,149.07 L187.48,149.19 L187.92,149.11 "/><path d="M189.52,146.19 L189.33,145.80 L189.02,145.59 L134.23,113.96 L134.07,113.74 "/></g></g><g id="Actor_2.1"><g style="stroke:#000000;stroke-width:0.176"><path d="M255.39,187.57 C255.27,187.65 255.26,187.66 255.17,187.76 C255.06,187.88 255.04,187.89 254.97,188.03 C254.89,188.18 254.88,188.20 254.85,188.36 "/><path d="M258.48,185.00 C258.28,184.92 258.27,184.92 258.06,184.87 C257.74,184.81 257.73,184.81 257.41,184.79 C257.23,184.77 257.22,184.78 257.04,184.80 C256.86,184.83 256.85,184.83 256.68,184.88 C256.54,184.91 256.54,184.92 256.41,184.98 C256.28,185.04 256.28,185.04 256.15,185.11 C256.03,185.19 256.02,185.19 255.92,185.29 C255.74,185.46 255.73,185.46 255.58,185.66 "/><path d="M255.27,179.04 C255.66,178.80 255.69,178.79 256.12,178.63 C256.59,178.46 256.62,178.46 257.12,178.38 C257.63,178.30 257.65,178.30 258.17,178.32 "/><path d="M256.20,189.10 C256.17,188.75 256.17,188.72 256.22,188.37 C256.29,187.98 256.30,187.95 256.44,187.58 C256.60,187.18 256.61,187.16 256.84,186.80 C257.06,186.45 257.08,186.43 257.37,186.13 C257.63,185.85 257.65,185.83 257.97,185.62 C258.24,185.45 258.28,185.44 258.58,185.35 "/><path d="M257.42,186.68 C257.46,186.60 257.47,186.59 257.54,186.53 C257.75,186.33 257.76,186.30 257.99,186.15 C258.20,186.02 258.22,186.01 258.45,185.95 "/><path d="M259.41,186.48 C259.48,186.71 259.48,186.74 259.47,186.97 C259.47,187.25 259.46,187.28 259.38,187.55 C259.30,187.85 259.29,187.87 259.15,188.15 C259.00,188.43 259.00,188.45 258.80,188.70 C258.61,188.94 258.60,188.96 258.37,189.15 C258.17,189.32 258.14,189.33 257.91,189.44 "/><path d="M249.14,192.72 L249.21,191.95 L249.49,191.37 L249.96,191.03 L249.80,190.74 L255.88,186.87 L255.54,187.06 L254.33,187.83 "/><path d="M249.80,190.74 L249.40,190.99 "/><path d="M249.96,191.03 L255.39,187.57 "/><path d="M254.85,188.36 L254.85,188.60 L254.92,188.83 L255.02,188.98 L254.96,189.01 "/><path d="M255.88,186.87 L255.90,187.25 L255.39,187.57 "/><path d="M264.05,181.06 L258.50,184.59 L258.51,184.95 L258.48,185.00 "/><path d="M255.58,185.66 L255.34,185.52 L255.33,185.25 "/><path d="M255.58,185.66 L255.27,179.04 "/><path d="M258.17,178.32 L258.48,185.00 "/><path d="M255.04,178.90 L255.27,179.04 "/><path d="M256.22,189.74 L256.75,190.04 L256.39,189.68 L256.20,189.10 "/><path d="M258.58,185.35 L259.14,185.34 L259.58,185.58 L258.51,184.95 "/><path d="M256.85,196.15 L256.57,189.94 "/><path d="M256.75,190.04 L257.26,190.16 L257.71,190.05 "/><path d="M258.45,185.95 L258.87,185.94 L259.20,186.12 L259.41,186.48 "/><path d="M257.91,189.44 L257.46,189.55 L257.08,189.47 L256.81,189.19 L256.67,188.76 L256.68,188.21 L256.82,187.72 "/><path d="M258.50,184.59 L258.48,184.31 "/><path d="M258.20,178.11 L258.17,178.32 "/><path d="M259.88,187.15 L259.94,186.72 L259.86,186.06 L259.58,185.58 "/><path d="M259.88,187.12 L265.08,183.81 "/></g><g style="stroke:#000000;stroke-width:0.529"><path d="M254.33,187.83 C254.30,187.57 254.30,187.54 254.35,187.29 C254.41,186.89 254.42,186.87 254.56,186.50 C254.72,186.10 254.74,186.08 254.96,185.72 C255.11,185.47 255.12,185.45 255.33,185.25 "/><path d="M255.04,178.90 C255.36,178.71 255.37,178.70 255.71,178.56 C256.09,178.40 256.10,178.40 256.49,178.30 C256.90,178.20 256.91,178.20 257.33,178.15 C257.76,178.10 257.77,178.10 258.20,178.11 "/><path d="M264.05,181.06 C264.10,181.50 264.10,181.51 264.20,181.95 C264.24,182.13 264.26,182.13 264.33,182.31 C264.44,182.60 264.41,182.62 264.55,182.90 C264.78,183.36 264.79,183.37 265.08,183.81 "/><path d="M259.88,187.15 C259.88,187.31 259.87,187.33 259.82,187.49 C259.69,187.89 259.70,187.91 259.51,188.29 C259.32,188.67 259.31,188.69 259.04,189.02 C258.79,189.34 258.78,189.36 258.47,189.62 C258.20,189.85 258.17,189.86 257.85,190.01 "/><path d="M250.27,190.43 L249.40,190.99 L249.11,191.40 L248.94,191.94 L248.91,192.58 L249.14,192.72 L254.96,189.01 L256.22,189.74 L256.53,196.55 L256.87,196.52 L256.85,196.15 "/><path d="M249.80,190.74 L254.33,187.83 "/><path d="M255.33,185.25 L255.04,178.90 "/><path d="M258.20,178.11 L258.48,184.31 L263.82,180.92 L264.05,181.06 "/><path d="M265.08,183.81 L264.93,183.93 L259.88,187.15 "/><path d="M257.85,190.01 L257.71,190.05 L257.92,194.73 L257.29,195.27 L256.93,195.88 L256.87,196.52 "/><path d="M257.27,187.06 L256.92,187.62 L256.82,187.72 L256.85,187.62 L257.14,187.04 L257.42,186.68 L257.27,187.06 "/></g></g><g id="Actor_2.2"><g style="stroke:#000000;stroke-width:0.176"><path d="M209.79,161.93 C209.63,162.04 209.62,162.05 209.48,162.18 C209.39,162.27 209.40,162.29 209.33,162.40 C209.26,162.49 209.26,162.49 209.20,162.59 "/><path d="M205.54,157.40 C205.83,156.98 205.86,156.95 206.23,156.60 C206.61,156.26 206.64,156.24 207.09,156.00 C207.51,155.77 207.56,155.75 208.03,155.63 "/><path d="M209.15,160.69 C209.19,160.56 209.19,160.55 209.25,160.42 C209.33,160.24 209.33,160.23 209.44,160.07 C209.55,159.90 209.56,159.89 209.70,159.75 C209.89,159.57 209.90,159.56 210.12,159.41 C210.32,159.28 210.33,159.27 210.55,159.19 C210.82,159.08 210.83,159.08 211.11,159.02 C211.38,158.96 211.39,158.96 211.68,158.95 "/><path d="M212.82,158.98 C212.51,159.08 212.48,159.10 212.21,159.28 C211.89,159.49 211.87,159.51 211.61,159.80 C211.32,160.11 211.31,160.13 211.09,160.49 C210.87,160.85 210.86,160.87 210.71,161.27 C210.57,161.64 210.56,161.67 210.51,162.06 C210.46,162.40 210.46,162.45 210.51,162.78 "/><path d="M213.69,160.05 C213.77,160.27 213.77,160.31 213.77,160.54 C213.77,160.81 213.76,160.84 213.69,161.11 C213.62,161.41 213.61,161.43 213.47,161.71 C213.33,162.00 213.32,162.01 213.13,162.27 C212.95,162.51 212.94,162.53 212.71,162.73 C212.50,162.90 212.48,162.92 212.24,163.04 "/><path d="M212.74,158.52 C212.55,158.40 212.55,158.40 212.35,158.28 C212.26,158.22 212.25,158.22 212.15,158.17 C212.05,158.13 212.04,158.12 211.94,158.11 C211.78,158.08 211.77,158.08 211.60,158.08 "/><path d="M212.37,163.49 C212.60,163.38 212.63,163.36 212.82,163.19 C213.12,162.92 213.14,162.90 213.39,162.57 C213.64,162.23 213.64,162.21 213.84,161.83 C213.92,161.69 213.92,161.67 213.96,161.52 "/><path d="M205.53,169.77 L205.19,169.42 L205.09,169.23 L205.24,169.20 L204.98,169.02 L209.79,161.93 "/><path d="M204.98,169.02 L204.83,169.02 L204.83,169.01 "/><path d="M205.24,169.20 L209.59,162.79 L209.70,162.88 L210.07,163.09 "/><path d="M208.77,160.42 L208.92,160.55 L209.15,160.69 L205.54,157.40 L205.31,157.27 "/><path d="M208.03,155.63 L211.68,158.95 L211.75,158.73 L210.87,157.93 "/><path d="M208.03,155.63 L208.02,155.34 "/><path d="M209.59,162.79 L209.94,162.28 L209.79,161.93 "/><path d="M213.39,158.94 L213.84,159.16 L212.74,158.52 L213.39,158.94 L212.82,158.98 "/><path d="M210.51,162.78 L210.71,163.33 L211.09,163.68 "/><path d="M211.72,160.29 L211.80,160.19 L212.25,159.80 L212.71,159.57 L213.13,159.54 L213.47,159.71 L213.69,160.05 "/><path d="M212.24,163.04 L211.79,163.17 L211.41,163.10 L211.12,162.84 L210.97,162.42 L210.97,161.88 L211.11,161.34 "/><path d="M211.60,158.08 L211.37,157.95 L211.42,157.86 "/><path d="M215.60,166.44 L212.37,163.49 L212.20,163.60 L212.09,163.63 "/><path d="M211.60,158.08 L216.25,151.23 "/><path d="M213.84,159.16 L213.98,159.37 "/></g><g style="stroke:#000000;stroke-width:0.529"><path d="M205.31,157.27 C205.54,156.92 205.56,156.90 205.85,156.60 C206.15,156.29 206.17,156.28 206.51,156.04 C206.85,155.79 206.87,155.78 207.24,155.61 C207.61,155.44 207.63,155.43 208.02,155.34 "/><path d="M216.01,151.09 C216.14,151.14 216.15,151.15 216.25,151.23 C216.54,151.45 216.52,151.48 216.81,151.71 C217.17,151.99 217.17,151.99 217.54,152.27 C217.96,152.57 217.96,152.57 218.39,152.87 "/><path d="M214.14,159.62 C214.23,159.92 214.24,159.96 214.24,160.27 C214.24,160.64 214.22,160.66 214.14,161.03 C214.08,161.28 214.07,161.30 213.96,161.52 "/><path d="M216.24,163.60 C215.97,164.03 215.96,164.05 215.77,164.52 C215.68,164.73 215.71,164.76 215.66,165.00 C215.60,165.25 215.56,165.26 215.55,165.50 C215.53,165.95 215.53,165.98 215.60,166.44 "/><path d="M205.53,169.77 C205.42,169.73 205.40,169.72 205.30,169.64 C205.14,169.51 205.14,169.49 204.99,169.34 C204.91,169.24 204.90,169.24 204.83,169.13 "/><path d="M211.11,161.34 C211.19,161.28 211.20,161.27 211.25,161.18 C211.43,160.92 211.44,160.91 211.59,160.62 C211.67,160.47 211.68,160.46 211.72,160.29 "/><path d="M211.72,160.29 C211.55,160.47 211.54,160.49 211.41,160.70 C211.24,160.98 211.26,160.99 211.12,161.29 C211.11,161.31 211.11,161.31 211.11,161.34 "/><path d="M204.83,169.01 L209.20,162.59 L208.83,162.25 L208.63,161.69 L208.63,160.98 L208.77,160.42 L205.31,157.27 "/><path d="M208.02,155.34 L210.87,157.93 L210.95,157.90 L211.42,157.86 L216.01,151.09 "/><path d="M218.39,152.87 L213.98,159.37 L214.14,159.62 "/><path d="M213.96,161.52 L216.24,163.60 "/><path d="M215.60,166.44 L215.31,166.56 L212.09,163.63 L211.61,163.77 L211.09,163.68 L210.07,163.09 L205.53,169.77 "/><path d="M204.83,169.13 L204.83,169.02 "/></g></g><g id="Actor_.1"><path style="fill:#0000ff;fill-rule:evenodd" d="M257.39,187.21L257.22,187.51L257.12,187.08z"/></g><g><g><path style="stroke:#000000;stroke-width:0.125;stroke-dasharray:3.7 2.4 1.2 2.4" d="M45.04,64.77L46.14,65.41"/><path style="stroke:#000000;stroke-width:0.125;stroke-dasharray:3.7 2.4 1.2 2.4" d="M47.76,66.34L66.86,77.37"/><path style="stroke:#000000;stroke-width:0.125;stroke-dasharray:3.7 2.4 1.2 2.4" d="M69.74,79.03L71.98,80.32"/><path style="stroke:#000000;stroke-width:0.125;stroke-dasharray:3.7 2.4 1.2 2.4" d="M73.73,81.33L87.52,89.30"/><path style="stroke:#000000;stroke-width:0.125;stroke-dasharray:3.7 2.4 1.2 2.4" d="M96.67,94.58L90.41,90.96"/></g><g/><g/></g><g><g><path style="stroke:#000000;stroke-width:0.125;stroke-dasharray:3.7 2.4 1.2 2.4" d="M205.33,157.29L187.95,147.26"/><path style="stroke:#000000;stroke-width:0.125;stroke-dasharray:3.7 2.4 1.2 2.4" d="M211.37,160.78L231.64,172.48"/><path style="stroke:#000000;stroke-width:0.125;stroke-dasharray:3.7 2.4 1.2 2.4" d="M235.83,174.90L234.23,173.97"/><path style="stroke:#000000;stroke-width:0.125;stroke-dasharray:3.7 2.4 1.2 2.4" d="M254.87,185.89L235.86,174.91"/><path style="stroke:#000000;stroke-width:0.125;stroke-dasharray:3.7 2.4 1.2 2.4" d="M257.13,187.19L257.08,187.16"/></g><g/><g><path style="fill:#000000" d="M257.38,187.19L257.38,187.17L257.37,187.14L257.37,187.12L257.36,187.10L257.35,187.07L257.33,187.05L257.32,187.03L257.30,187.02L257.29,187.00L257.27,186.98L257.24,186.97L257.22,186.96L257.20,186.95L257.18,186.95L257.15,186.94L257.13,186.94L257.10,186.94L257.08,186.95L257.05,186.95L257.03,186.96L257.01,186.97L256.99,186.98L256.97,187.00L256.95,187.02L256.93,187.03L256.92,187.05L256.91,187.07L256.90,187.10L256.89,187.12L256.88,187.14L256.88,187.17L256.88,187.19L256.88,187.22L256.88,187.24L256.89,187.27L256.90,187.29L256.91,187.31L256.92,187.33L256.93,187.35L256.95,187.37L256.97,187.39L256.99,187.40L257.01,187.41L257.03,187.42L257.05,187.43L257.08,187.44L257.10,187.44L257.13,187.44L257.15,187.44L257.18,187.44L257.20,187.43L257.22,187.42L257.24,187.41L257.27,187.40L257.29,187.39L257.30,187.37L257.32,187.35L257.33,187.33L257.35,187.31L257.36,187.29L257.37,187.27L257.37,187.24L257.38,187.22z"/></g></g><g id="PMI3.0"><g><path style="stroke:#000000;stroke-width:0.250" d="M110.58,54.46L42.67,66.65"/></g><g><path style="fill:#000000" d="M42.67,66.65L44.82,67.28L43.66,66.47L44.47,65.31z"/></g><g><path style="fill:#ffffff" d="M121.78,53.46L121.75,52.91L121.67,52.36L121.54,51.82L121.35,51.30L121.11,50.80L120.83,50.32L120.50,49.88L120.13,49.47L119.72,49.10L119.27,48.77L118.80,48.48L118.30,48.25L117.78,48.06L117.24,47.93L116.69,47.84L116.14,47.82L115.58,47.84L115.04,47.93L114.50,48.06L113.98,48.25L113.48,48.48L113.00,48.77L112.56,49.10L112.15,49.47L111.78,49.88L111.45,50.32L111.16,50.80L110.92,51.30L110.74,51.82L110.60,52.36L110.52,52.91L110.49,53.46L110.52,54.01L110.60,54.56L110.74,55.10L110.92,55.62L111.16,56.12L111.45,56.60L111.78,57.04L112.15,57.45L112.56,57.82L113.00,58.15L113.48,58.44L113.98,58.67L114.50,58.86L115.04,58.99L115.58,59.08L116.14,59.10L116.69,59.08L117.24,58.99L117.78,58.86L118.30,58.67L118.80,58.44L119.27,58.15L119.72,57.82L120.13,57.45L120.50,57.04L120.83,56.60L121.11,56.12L121.35,55.62L121.54,55.10L121.67,54.56L121.75,54.01z"/><path style="stroke:#000000;stroke-width:0.250;stroke-opacity:0.98" d="M121.78,53.46L121.75,52.91L121.67,52.36L121.54,51.82L121.35,51.30L121.11,50.80L120.83,50.32L120.50,49.88L120.13,49.47L119.72,49.10L119.27,48.77L118.80,48.48L118.30,48.25L117.78,48.06L117.24,47.93L116.69,47.84L116.14,47.82L115.58,47.84L115.04,47.93L114.50,48.06L113.98,48.25L113.48,48.48L113.00,48.77L112.56,49.10L112.15,49.47L111.78,49.88L111.45,50.32L111.16,50.80L110.92,51.30L110.74,51.82L110.60,52.36L110.52,52.91L110.49,53.46L110.52,54.01L110.60,54.56L110.74,55.10L110.92,55.62L111.16,56.12L111.45,56.60L111.78,57.04L112.15,57.45L112.56,57.82L113.00,58.15L113.48,58.44L113.98,58.67L114.50,58.86L115.04,58.99L115.58,59.08L116.14,59.10L116.69,59.08L117.24,58.99L117.78,58.86L118.30,58.67L118.80,58.44L119.27,58.15L119.72,57.82L120.13,57.45L120.50,57.04L120.83,56.60L121.11,56.12L121.35,55.62L121.54,55.10L121.67,54.56L121.75,54.01z"/><text xml:space="preserve" fill="#000000" stroke-width="0" x="114.36" y="55.93" font-size="6.39" opacity="1.00" font-family="MS Shell Dlg">3</text></g></g><g id="PMI4.0"><g><path style="stroke:#000000;stroke-width:0.250" d="M134.71,73.62L66.82,81.53"/></g><g><path style="fill:#000000" d="M66.82,81.53L68.92,82.29L67.81,81.42L68.69,80.31z"/></g><g><path style="fill:#ffffff" d="M145.96,72.97L145.93,72.41L145.85,71.87L145.72,71.33L145.53,70.81L145.29,70.31L145.01,69.83L144.68,69.39L144.31,68.98L143.90,68.60L143.45,68.27L142.98,67.99L142.47,67.75L141.95,67.57L141.42,67.43L140.87,67.35L140.32,67.32L139.76,67.35L139.21,67.43L138.68,67.57L138.16,67.75L137.66,67.99L137.18,68.27L136.74,68.60L136.32,68.98L135.95,69.39L135.62,69.83L135.34,70.31L135.10,70.81L134.92,71.33L134.78,71.87L134.70,72.41L134.67,72.97L134.70,73.52L134.78,74.07L134.92,74.60L135.10,75.13L135.34,75.63L135.62,76.10L135.95,76.55L136.32,76.96L136.74,77.33L137.18,77.66L137.66,77.94L138.16,78.18L138.68,78.37L139.21,78.50L139.76,78.58L140.32,78.61L140.87,78.58L141.42,78.50L141.95,78.37L142.47,78.18L142.98,77.94L143.45,77.66L143.90,77.33L144.31,76.96L144.68,76.55L145.01,76.10L145.29,75.63L145.53,75.13L145.72,74.60L145.85,74.07L145.93,73.52z"/><path style="stroke:#000000;stroke-width:0.250;stroke-opacity:0.98" d="M145.96,72.97L145.93,72.41L145.85,71.87L145.72,71.33L145.53,70.81L145.29,70.31L145.01,69.83L144.68,69.39L144.31,68.98L143.90,68.60L143.45,68.27L142.98,67.99L142.47,67.75L141.95,67.57L141.42,67.43L140.87,67.35L140.32,67.32L139.76,67.35L139.21,67.43L138.68,67.57L138.16,67.75L137.66,67.99L137.18,68.27L136.74,68.60L136.32,68.98L135.95,69.39L135.62,69.83L135.34,70.31L135.10,70.81L134.92,71.33L134.78,71.87L134.70,72.41L134.67,72.97L134.70,73.52L134.78,74.07L134.92,74.60L135.10,75.13L135.34,75.63L135.62,76.10L135.95,76.55L136.32,76.96L136.74,77.33L137.18,77.66L137.66,77.94L138.16,78.18L138.68,78.37L139.21,78.50L139.76,78.58L140.32,78.61L140.87,78.58L141.42,78.50L141.95,78.37L142.47,78.18L142.98,77.94L143.45,77.66L143.90,77.33L144.31,76.96L144.68,76.55L145.01,76.10L145.29,75.63L145.53,75.13L145.72,74.60L145.85,74.07L145.93,73.52z"/><text xml:space="preserve" fill="#000000" stroke-width="0" x="138.44" y="75.44" font-size="6.74" opacity="1.00" font-family="MS Shell Dlg">4</text></g><g><text xml:space="preserve" fill="#000000" stroke-width="0" x="143.60" y="67.68" font-size="6.89" opacity="1.00" font-family="MS Shell Dlg">x2</text></g></g><g id="PMI1.0"><g><path style="stroke:#000000;stroke-width:0.250" d="M160.09,82.43L133.09,113.96"/></g><g><path style="fill:#000000" d="M133.09,113.96L135.15,113.09L133.74,113.20L133.63,111.79z"/></g><g><path style="fill:#ffffff" d="M169.40,78.15L169.37,77.59L169.29,77.05L169.16,76.51L168.97,75.99L168.73,75.49L168.45,75.01L168.12,74.57L167.75,74.16L167.34,73.79L166.89,73.46L166.42,73.17L165.92,72.93L165.39,72.75L164.86,72.61L164.31,72.53L163.76,72.50L163.20,72.53L162.65,72.61L162.12,72.75L161.60,72.93L161.10,73.17L160.62,73.46L160.18,73.79L159.77,74.16L159.39,74.57L159.06,75.01L158.78,75.49L158.54,75.99L158.36,76.51L158.22,77.05L158.14,77.59L158.11,78.15L158.14,78.70L158.22,79.25L158.36,79.79L158.54,80.31L158.78,80.81L159.06,81.28L159.39,81.73L159.77,82.14L160.18,82.51L160.62,82.84L161.10,83.12L161.60,83.36L162.12,83.55L162.65,83.68L163.20,83.76L163.76,83.79L164.31,83.76L164.86,83.68L165.39,83.55L165.92,83.36L166.42,83.12L166.89,82.84L167.34,82.51L167.75,82.14L168.12,81.73L168.45,81.28L168.73,80.81L168.97,80.31L169.16,79.79L169.29,79.25L169.37,78.70z"/><path style="stroke:#000000;stroke-width:0.250;stroke-opacity:0.98" d="M169.40,78.15L169.37,77.59L169.29,77.05L169.16,76.51L168.97,75.99L168.73,75.49L168.45,75.01L168.12,74.57L167.75,74.16L167.34,73.79L166.89,73.46L166.42,73.17L165.92,72.93L165.39,72.75L164.86,72.61L164.31,72.53L163.76,72.50L163.20,72.53L162.65,72.61L162.12,72.75L161.60,72.93L161.10,73.17L160.62,73.46L160.18,73.79L159.77,74.16L159.39,74.57L159.06,75.01L158.78,75.49L158.54,75.99L158.36,76.51L158.22,77.05L158.14,77.59L158.11,78.15L158.14,78.70L158.22,79.25L158.36,79.79L158.54,80.31L158.78,80.81L159.06,81.28L159.39,81.73L159.77,82.14L160.18,82.51L160.62,82.84L161.10,83.12L161.60,83.36L162.12,83.55L162.65,83.68L163.20,83.76L163.76,83.79L164.31,83.76L164.86,83.68L165.39,83.55L165.92,83.36L166.42,83.12L166.89,82.84L167.34,82.51L167.75,82.14L168.12,81.73L168.45,81.28L168.73,80.81L168.97,80.31L169.16,79.79L169.29,79.25L169.37,78.70z"/><text xml:space="preserve" fill="#000000" stroke-width="0" x="162.22" y="80.62" font-size="5.55" opacity="1.00" font-family="MS Shell Dlg">1</text></g></g><g id="PMI2.0"><g><path style="stroke:#000000;stroke-width:0.250" d="M213.14,108.16L236.40,174.72"/></g><g><path style="fill:#000000" d="M236.40,174.72L236.69,172.51L236.07,173.78L234.80,173.17z"/></g><g><path style="fill:#ffffff" d="M216.92,102.84L216.89,102.28L216.81,101.73L216.68,101.20L216.49,100.68L216.25,100.18L215.97,99.70L215.64,99.26L215.27,98.85L214.86,98.47L214.41,98.14L213.94,97.86L213.44,97.62L212.91,97.44L212.38,97.30L211.83,97.22L211.28,97.19L210.72,97.22L210.17,97.30L209.64,97.44L209.12,97.62L208.62,97.86L208.14,98.14L207.70,98.47L207.29,98.85L206.91,99.26L206.58,99.70L206.30,100.18L206.06,100.68L205.88,101.20L205.74,101.73L205.66,102.28L205.63,102.84L205.66,103.39L205.74,103.94L205.88,104.47L206.06,105.00L206.30,105.50L206.58,105.97L206.91,106.42L207.29,106.83L207.70,107.20L208.14,107.53L208.62,107.81L209.12,108.05L209.64,108.24L210.17,108.37L210.72,108.45L211.28,108.48L211.83,108.45L212.38,108.37L212.91,108.24L213.44,108.05L213.94,107.81L214.41,107.53L214.86,107.20L215.27,106.83L215.64,106.42L215.97,105.97L216.25,105.50L216.49,105.00L216.68,104.47L216.81,103.94L216.89,103.39z"/><path style="stroke:#000000;stroke-width:0.250;stroke-opacity:0.98" d="M216.92,102.84L216.89,102.28L216.81,101.73L216.68,101.20L216.49,100.68L216.25,100.18L215.97,99.70L215.64,99.26L215.27,98.85L214.86,98.47L214.41,98.14L213.94,97.86L213.44,97.62L212.91,97.44L212.38,97.30L211.83,97.22L211.28,97.19L210.72,97.22L210.17,97.30L209.64,97.44L209.12,97.62L208.62,97.86L208.14,98.14L207.70,98.47L207.29,98.85L206.91,99.26L206.58,99.70L206.30,100.18L206.06,100.68L205.88,101.20L205.74,101.73L205.66,102.28L205.63,102.84L205.66,103.39L205.74,103.94L205.88,104.47L206.06,105.00L206.30,105.50L206.58,105.97L206.91,106.42L207.29,106.83L207.70,107.20L208.14,107.53L208.62,107.81L209.12,108.05L209.64,108.24L210.17,108.37L210.72,108.45L211.28,108.48L211.83,108.45L212.38,108.37L212.91,108.24L213.44,108.05L213.94,107.81L214.41,107.53L214.86,107.20L215.27,106.83L215.64,106.42L215.97,105.97L216.25,105.50L216.49,105.00L216.68,104.47L216.81,103.94L216.89,103.39z"/><text xml:space="preserve" fill="#000000" stroke-width="0" x="209.46" y="105.30" font-size="6.54" opacity="1.00" font-family="MS Shell Dlg">2</text></g><g><text xml:space="preserve" fill="#000000" stroke-width="0" x="214.50" y="97.55" font-size="6.89" opacity="1.00" font-family="MS Shell Dlg">x3</text></g></g><g/><g/><g id="paperID" visibility="hidden" opacity="0.00" transform="scale(0.000100)"><path style="stroke:#000000;stroke-width:0.500;fill:#e6e6e6;fill-rule:evenodd" d="M-2000.00,-2000.00L2297.00,-2000.00L2297.00,2210.00L-2000.00,2210.00zM0.00,0.00L297.00,0.00L297.00,210.00L0.00,210.00z"/><path style="fill:#000000;fill-opacity:0.118" d="M3.00,210.00L297.00,210.00L297.00,3.00L300.00,3.00L300.00,213.00L3.00,213.00z"/></g><g><g><path style="stroke:#000000;stroke-width:0.353;fill:#f0f0ff" d="M189.40,30.17L285.08,30.17L285.08,37.97L189.40,37.97z"/><text xml:space="preserve" fill="#000000" stroke-width="0" x="192.39" y="36.17" font-size="5.62" opacity="1.00" font-family="MS Shell Dlg" font-weight="bold">ITEM NO.</text><text xml:space="preserve" fill="#000000" stroke-width="0" x="223.97" y="36.17" font-size="5.60" opacity="1.00" font-family="MS Shell Dlg" font-weight="bold">Description</text><text xml:space="preserve" fill="#000000" stroke-width="0" x="273.18" y="36.17" font-size="5.56" opacity="1.00" font-family="MS Shell Dlg" font-weight="bold">Qty</text><path style="stroke:#000000;stroke-width:0.353" d="M220.97,30.17L220.97,37.97"/><path style="stroke:#000000;stroke-width:0.353" d="M270.19,30.17L270.19,37.97"/></g><g id="Line1"><path style="stroke:#000000;stroke-width:0.353;fill:#ffffff" d="M189.40,37.97L285.08,37.97L285.08,45.76L189.40,45.76z"/><text xml:space="preserve" fill="#000000" stroke-width="0" x="192.39" y="43.96" font-size="4.71" opacity="1.00" font-family="MS Shell Dlg">1</text><text xml:space="preserve" fill="#000000" stroke-width="0" x="223.97" y="43.96" font-size="5.79" opacity="1.00" font-family="MS Shell Dlg">1058-Bearing-11</text><text xml:space="preserve" fill="#000000" stroke-width="0" x="273.18" y="43.96" font-size="4.71" opacity="1.00" font-family="MS Shell Dlg">1</text><path style="stroke:#000000;stroke-width:0.353" d="M220.97,37.97L220.97,45.76"/><path style="stroke:#000000;stroke-width:0.353" d="M270.19,37.97L270.19,45.76"/></g><g id="Line2"><path style="stroke:#000000;stroke-width:0.353;fill:#f0f0ff" d="M189.40,45.76L285.08,45.76L285.08,53.56L189.40,53.56z"/><text xml:space="preserve" fill="#000000" stroke-width="0" x="192.39" y="51.76" font-size="5.56" opacity="1.00" font-family="MS Shell Dlg">2</text><text xml:space="preserve" fill="#000000" stroke-width="0" x="223.97" y="51.76" font-size="5.77" opacity="1.00" font-family="MS Shell Dlg">1058-Foil-4-11</text><text xml:space="preserve" fill="#000000" stroke-width="0" x="273.18" y="51.76" font-size="5.43" opacity="1.00" font-family="MS Shell Dlg">3</text><path style="stroke:#000000;stroke-width:0.353" d="M220.97,45.76L220.97,53.56"/><path style="stroke:#000000;stroke-width:0.353" d="M270.19,45.76L270.19,53.56"/></g><g id="Line3"><path style="stroke:#000000;stroke-width:0.353;fill:#ffffff" d="M189.40,53.56L285.08,53.56L285.08,61.35L189.40,61.35z"/><text xml:space="preserve" fill="#000000" stroke-width="0" x="192.39" y="59.55" font-size="5.43" opacity="1.00" font-family="MS Shell Dlg">3</text><text xml:space="preserve" fill="#000000" stroke-width="0" x="223.97" y="59.55" font-size="5.79" opacity="1.00" font-family="MS Shell Dlg">1058-Frame-11</text><text xml:space="preserve" fill="#000000" stroke-width="0" x="273.18" y="59.55" font-size="4.71" opacity="1.00" font-family="MS Shell Dlg">1</text><path style="stroke:#000000;stroke-width:0.353" d="M220.97,53.56L220.97,61.35"/><path style="stroke:#000000;stroke-width:0.353" d="M270.19,53.56L270.19,61.35"/></g><g id="Line4"><path style="stroke:#000000;stroke-width:0.353;fill:#f0f0ff" d="M189.40,61.35L285.08,61.35L285.08,69.14L189.40,69.14z"/><text xml:space="preserve" fill="#000000" stroke-width="0" x="192.39" y="67.35" font-size="5.73" opacity="1.00" font-family="MS Shell Dlg">4</text><text xml:space="preserve" fill="#000000" stroke-width="0" x="223.97" y="67.35" font-size="5.79" opacity="1.00" font-family="MS Shell Dlg">1058-Shaft-11</text><text xml:space="preserve" fill="#000000" stroke-width="0" x="273.18" y="67.35" font-size="5.56" opacity="1.00" font-family="MS Shell Dlg">2</text><path style="stroke:#000000;stroke-width:0.353" d="M220.97,61.35L220.97,69.14"/><path style="stroke:#000000;stroke-width:0.353" d="M270.19,61.35L270.19,69.14"/></g></g><g id="hotspot.0" onmouseover="ShowHotSpot(evt,'0')" onmouseout="HideHotSpot(evt,'0')" onmousemove="ShowToolTip(evt,'0',&quot;Imported1&quot;)" opacity="0"><a xlink:href=""><path style="fill:#00ff00;fill-rule:evenodd" d="M189.40,37.97L189.40,45.76L285.08,45.76L285.08,37.97zM166.93,73.55L168.46,75.07L169.37,77.21L169.37,79.45L168.45,81.59L166.84,83.02L165.01,83.94L162.33,83.94L160.87,83.27L160.52,82.98L159.80,82.96L143.05,102.51L134.28,112.71L134.56,113.18L134.24,113.51L134.28,114.07L188.26,145.18L189.52,146.09L189.50,146.79L188.47,148.84L186.72,148.85L132.19,117.43L129.76,116.81L96.54,97.61L96.19,97.05L96.19,95.58L97.14,93.79L98.24,93.04L99.27,93.04L133.09,112.60L133.88,112.58L159.66,82.48L159.61,82.13L158.37,80.58L158.06,79.67L158.06,76.99L159.20,74.77L161.64,72.95L162.55,72.64L164.79,72.64z"/></a></g><g id="hotspot.1" onmouseover="ShowHotSpot(evt,'1')" onmouseout="HideHotSpot(evt,'1')" onmousemove="ShowToolTip(evt,'1',&quot;Imported1&quot;)" opacity="0"><a xlink:href=""><path style="fill:#00ff00;fill-rule:evenodd" d="M189.40,45.76L189.40,53.56L285.08,53.56L285.08,45.76zM221.20,93.03L221.18,95.15L221.49,95.49L221.50,96.84L220.49,97.66L219.02,97.66L218.06,96.71L218.05,96.37L218.72,96.39L219.07,96.70L220.49,96.73L220.62,95.78L219.53,95.27L219.53,94.62L220.32,94.09L220.28,93.36L219.28,93.39L218.99,93.77L218.33,93.80L218.43,92.87L219.24,92.43L220.27,92.43zM215.94,94.71L216.26,94.71L216.78,93.94L217.82,93.95L216.91,95.33L216.91,96.08L217.87,97.36L217.84,97.74L216.91,97.65L216.26,96.70L215.93,96.69L215.38,97.74L214.34,97.73L214.45,97.16L215.42,95.90L215.13,95.16L214.72,94.59L214.67,93.96L215.39,93.92zM214.78,98.54L216.03,100.03L216.91,101.90L216.91,104.14L215.70,106.58L213.49,108.29L234.31,168.09L234.58,168.14L236.01,164.09L237.63,164.09L238.87,164.40L238.89,165.08L236.71,170.87L236.39,172.31L240.71,172.62L240.71,175.76L235.99,175.95L234.80,176.92L233.38,176.95L231.44,182.37L230.53,183.64L229.90,183.70L230.23,182.68L232.46,175.99L231.25,175.03L226.54,174.54L226.86,173.52L228.07,172.60L232.14,172.40L232.65,171.69L233.39,171.21L233.99,169.66L234.00,168.64L212.93,108.60L209.88,108.63L208.06,107.70L207.11,106.82L205.92,105.27L205.61,104.36L205.61,101.68L206.70,99.42L208.37,98.03L210.10,97.32L212.34,97.32zM218.18,152.79L218.16,153.20L214.13,158.98L214.17,161.94L214.77,162.25L216.03,163.46L215.37,166.35L214.80,166.23L212.94,164.39L212.04,163.76L210.51,163.43L210.08,163.15L205.51,169.58L205.01,169.59L204.98,168.74L208.98,162.52L208.67,161.97L208.67,160.38L205.62,157.66L205.62,156.89L207.36,155.51L208.07,155.51L210.52,157.68L211.39,157.79L215.88,151.23L216.30,151.24zM264.80,183.29L264.77,183.96L260.07,186.92L259.28,188.57L257.66,189.99L257.77,194.68L257.30,195.13L256.80,196.53L256.46,196.54L256.24,190.28L255.62,189.35L255.04,189.08L249.40,192.46L248.82,192.46L249.22,191.00L254.06,187.92L255.02,185.53L255.22,178.72L258.05,178.07L258.57,184.03L259.31,183.73L263.45,181.10L263.83,181.13z"/></a></g><g id="hotspot.2" onmouseover="ShowHotSpot(evt,'2')" onmouseout="HideHotSpot(evt,'2')" onmousemove="ShowToolTip(evt,'2',&quot;Imported1&quot;)" opacity="0"><a xlink:href=""><path style="fill:#00ff00;fill-rule:evenodd" d="M189.40,53.56L189.40,61.35L285.08,61.35L285.08,53.56zM30.37,44.00L32.21,45.51L33.12,47.96L33.01,51.68L43.81,58.00L44.89,58.01L46.13,57.11L47.96,56.19L50.19,55.86L52.01,56.49L53.27,57.36L54.15,58.62L54.76,60.76L54.74,64.22L110.24,54.16L110.74,51.62L111.78,49.90L113.48,48.56L115.00,47.95L117.25,47.95L119.69,49.16L121.21,51.00L121.81,52.83L121.82,54.46L121.21,56.29L119.11,58.45L117.46,59.25L114.78,59.25L112.69,58.29L111.14,56.49L110.53,54.97L109.22,54.97L54.72,64.77L54.13,65.71L52.32,69.69L49.91,72.77L47.31,74.74L44.61,75.70L43.16,75.71L40.72,74.49L39.20,72.35L38.89,69.71L38.94,67.43L27.93,61.02L27.54,61.03L25.09,62.58L23.28,63.20L21.52,63.21L19.08,61.99L17.86,60.47L17.56,59.55L17.57,55.05L18.39,52.22L20.19,48.84L23.23,45.48L26.30,43.67L28.23,43.37z"/></a></g><g id="hotspot.3" onmouseover="ShowHotSpot(evt,'3')" onmouseout="HideHotSpot(evt,'3')" onmousemove="ShowToolTip(evt,'3',&quot;Imported1&quot;)" opacity="0"><a xlink:href=""><path style="fill:#00ff00;fill-rule:evenodd" d="M189.40,61.35L189.40,69.14L285.08,69.14L285.08,61.35zM150.14,62.91L150.49,63.47L150.48,64.84L148.50,66.85L150.50,67.17L150.50,67.85L145.89,67.77L145.31,66.82L145.15,66.82L144.57,67.77L143.65,67.88L143.76,66.96L144.40,66.36L144.40,65.31L143.74,64.69L143.63,64.11L144.67,64.10L145.29,65.12L145.80,64.10L146.83,64.11L146.87,64.50L146.20,65.13L146.21,66.53L146.75,67.28L147.07,67.28L149.58,64.52L149.61,63.78L149.26,63.44L148.52,63.45L147.99,64.23L147.31,64.23L147.38,63.27L148.21,62.56L149.57,62.56zM143.46,68.37L144.71,69.56L145.90,72.03L145.90,74.27L145.19,76.00L143.63,77.80L141.54,78.76L138.86,78.76L136.46,77.50L134.89,75.41L134.62,74.16L132.38,74.17L73.26,81.19L71.71,82.99L69.90,83.96L69.08,83.96L66.36,82.38L66.01,81.81L66.03,79.44L66.64,77.61L68.20,75.51L70.22,74.45L70.91,74.44L73.63,76.02L74.28,77.52L73.85,80.38L134.31,73.36L135.13,70.51L136.04,69.29L138.17,67.77L139.08,67.45L141.33,67.45zM92.25,86.66L94.43,88.14L94.96,89.69L94.69,91.34L93.98,93.07L92.58,94.71L90.95,95.82L89.49,95.82L87.08,94.27L86.74,93.69L86.74,91.01L88.31,88.01L89.71,86.96L91.37,86.38zM70.52,79.36L69.39,80.69L69.37,79.74L70.66,77.90L70.95,77.83zM91.33,91.03L90.12,92.59L90.09,91.31L91.55,89.70L91.67,89.72z"/></a></g><g id="ToolTip" visibility="hidden" opacity="0" transform="translate(0,0)"><rect id="ToolTipShadow" opacity="0.20" fill="black" stroke="none" x="0" y="0" width="30" height="8"/><rect id="ToolTipBG" fill="#ffffe1" stroke="black" x="0" y="0" width="30" height="8"/><text xml:space="preserve" id="ToolTipText" fill="black" x="0" y="0" width="30" height="8">tooltip</text></g></g></svg>
